<svg width="24" height="23" viewBox="0 0 24 23" fill="none" xmlns="http://www.w3.org/2000/svg">
<path d="M12.1445 0.00976562C16.0224 0.206478 19.1062 3.41313 19.1064 7.33984L19.0967 7.71777C19.0941 7.76798 19.0885 7.81823 19.085 7.86816C21.9469 8.86965 24 11.5931 24 14.7969L23.9902 15.1748C23.7934 19.0526 20.5869 22.1367 16.6602 22.1367L16.2822 22.127C14.6591 22.0446 13.176 21.4338 11.999 20.4648C10.7315 21.508 9.10963 22.1367 7.33984 22.1367L6.96191 22.127C3.20917 21.9366 0.200291 18.9275 0.00976562 15.1748L0 14.7969C0 11.7649 1.83807 9.16135 4.46094 8.04199C4.45076 7.93469 4.44203 7.82637 4.43652 7.71777L4.42676 7.33984C4.42697 3.28651 7.71327 0.00023062 11.7666 0L12.1445 0.00976562ZM4.63086 9.06348C2.48469 10.0794 1 12.2647 1 14.7969C1.00019 18.2981 3.83859 21.1367 7.33984 21.1367C8.82281 21.1367 10.1848 20.6246 11.2646 19.7715C10.1378 18.55 9.41997 16.9454 9.33008 15.1748L9.32031 14.7969C9.32031 14.6193 9.32842 14.443 9.34082 14.2686C7.00973 13.4523 5.2156 11.4938 4.63086 9.06348ZM18.9424 8.88184C18.4394 11.2342 16.8102 13.1665 14.6455 14.0908C14.6677 14.3231 14.6797 14.5588 14.6797 14.7969L14.6699 15.1748C14.58 16.9459 13.8607 18.5498 12.7334 19.7715C13.8134 20.6251 15.1766 21.1367 16.6602 21.1367C20.1614 21.1367 22.9998 18.2981 23 14.7969C23 12.1003 21.3158 9.79823 18.9424 8.88184ZM13.668 14.4287C13.0615 14.591 12.4243 14.6797 11.7666 14.6797L11.3887 14.6699C11.0272 14.6516 10.6729 14.6059 10.3271 14.5371C10.3237 14.6232 10.3203 14.71 10.3203 14.7969C10.3204 16.4548 10.9581 17.9631 12 19.0928C13.042 17.9631 13.6796 16.4548 13.6797 14.7969C13.6797 14.6734 13.6749 14.5505 13.668 14.4287ZM12 10.5C11.228 11.3369 10.6773 12.3813 10.4443 13.541C10.8709 13.6316 11.3131 13.6797 11.7666 13.6797C12.3787 13.6797 12.9704 13.5915 13.5303 13.4297C13.2852 12.3145 12.7471 11.3099 12 10.5ZM7.33984 8.45703C6.72765 8.45703 6.1362 8.54512 5.57617 8.70703C6.03525 10.7958 7.52389 12.4967 9.4834 13.2539C9.76313 11.9462 10.3911 10.7679 11.2656 9.82031C10.1858 8.96725 8.8228 8.45704 7.33984 8.45703ZM16.6602 8.45703C15.1769 8.45705 13.8133 8.96696 12.7334 9.82031C13.5675 10.7239 14.1771 11.8369 14.4746 13.0723C16.2568 12.2289 17.5836 10.5809 17.9824 8.5957C17.5559 8.5052 17.1136 8.45703 16.6602 8.45703ZM11.7666 1C8.26555 1.00023 5.42697 3.83879 5.42676 7.33984C5.42676 7.46265 5.43159 7.58498 5.43848 7.70605C6.04495 7.54383 6.68221 7.45703 7.33984 7.45703L7.71777 7.4668C9.33951 7.54907 10.8215 8.15843 11.998 9.12598C13.2657 8.08252 14.8901 7.45705 16.6602 7.45703L17.0381 7.4668C17.3994 7.48512 17.7539 7.52893 18.0996 7.59766C18.103 7.51225 18.1064 7.42609 18.1064 7.33984C18.1062 3.83866 15.2678 1.00002 11.7666 1Z" fill="black"/>
</svg>
