<svg width="105" height="105" viewBox="0 0 105 105" fill="none" xmlns="http://www.w3.org/2000/svg">
<g clip-path="url(#clip0_417_387)">
<path d="M28.6345 40.7895C32.6761 33.2133 40.7363 28.0469 50.0203 28.0469C63.3573 28.0469 74.169 38.7085 74.169 51.8602C74.169 65.0119 63.3573 75.6734 50.0203 75.6734C40.9349 75.6734 33.0222 70.7252 28.9002 63.4131L28.9175 63.4437L7.86809 84.1995L17.4377 93.6362L34.699 76.6146L27.1563 99.5087L40.0262 103.632L47.5653 80.7528L51.3795 104.5L64.7459 102.412L60.9317 78.6733L75.2687 98.1305L86.2161 90.2862L71.8716 70.818L93.6111 81.7406L99.7551 69.8498L78.023 58.931H102.41V45.5862H78.0081L99.7551 34.6599L93.6111 22.7692L71.889 33.6832L86.2211 14.2309L75.2725 6.38781L60.9205 25.8671L64.7409 2.08806L51.3745 0L47.5566 23.7729L40.0126 0.877571L27.1426 5.00107L34.6804 27.878L17.4389 10.8748L7.86933 20.3103L28.6345 40.7895ZM11.4427 45.5739H-2.09003V58.9187H11.4427V45.5739Z" fill="#E5E5E5"/>
</g>
<defs>
<clipPath id="clip0_417_387">
<rect width="104.5" height="104.5" fill="white"/>
</clipPath>
</defs>
</svg>
