<svg width="1360" height="665" viewBox="0 0 1360 665" fill="none" xmlns="http://www.w3.org/2000/svg">
<rect width="1360" height="665" fill="#222222"/>
<path d="M638.76 339.5V326.54H642.693C642.831 326.54 643.065 326.543 643.395 326.549C643.731 326.555 644.052 326.579 644.358 326.621C645.342 326.759 646.164 327.125 646.824 327.719C647.484 328.313 647.979 329.069 648.309 329.987C648.639 330.905 648.804 331.916 648.804 333.02C648.804 334.124 648.639 335.135 648.309 336.053C647.979 336.971 647.484 337.727 646.824 338.321C646.164 338.915 645.342 339.281 644.358 339.419C644.058 339.455 643.737 339.479 643.395 339.491C643.053 339.497 642.819 339.5 642.693 339.5H638.76ZM640.128 338.231H642.693C642.939 338.231 643.203 338.225 643.485 338.213C643.773 338.195 644.019 338.165 644.223 338.123C644.979 337.991 645.588 337.685 646.05 337.205C646.518 336.725 646.86 336.125 647.076 335.405C647.292 334.679 647.4 333.884 647.4 333.02C647.4 332.15 647.292 331.352 647.076 330.626C646.86 329.9 646.518 329.3 646.05 328.826C645.582 328.352 644.973 328.049 644.223 327.917C644.019 327.875 643.77 327.848 643.476 327.836C643.188 327.818 642.927 327.809 642.693 327.809H640.128V338.231ZM654.967 339.77C654.019 339.77 653.197 339.56 652.501 339.14C651.811 338.72 651.274 338.129 650.89 337.367C650.506 336.605 650.314 335.711 650.314 334.685C650.314 333.623 650.503 332.705 650.881 331.931C651.259 331.157 651.79 330.56 652.474 330.14C653.164 329.72 653.977 329.51 654.913 329.51C655.873 329.51 656.692 329.732 657.37 330.176C658.048 330.614 658.561 331.244 658.909 332.066C659.257 332.888 659.416 333.869 659.386 335.009H658.036V334.541C658.012 333.281 657.739 332.33 657.217 331.688C656.701 331.046 655.945 330.725 654.949 330.725C653.905 330.725 653.104 331.064 652.546 331.742C651.994 332.42 651.718 333.386 651.718 334.64C651.718 335.864 651.994 336.815 652.546 337.493C653.104 338.165 653.893 338.501 654.913 338.501C655.609 338.501 656.215 338.342 656.731 338.024C657.253 337.7 657.664 337.235 657.964 336.629L659.197 337.106C658.813 337.952 658.246 338.609 657.496 339.077C656.752 339.539 655.909 339.77 654.967 339.77ZM651.25 335.009V333.902H658.675V335.009H651.25ZM672.711 339.5L672.72 333.119C672.72 332.369 672.51 331.781 672.09 331.355C671.676 330.923 671.148 330.707 670.506 330.707C670.14 330.707 669.783 330.791 669.435 330.959C669.087 331.127 668.799 331.397 668.571 331.769C668.349 332.141 668.238 332.627 668.238 333.227L667.455 333.002C667.437 332.306 667.572 331.697 667.86 331.175C668.154 330.653 668.556 330.248 669.066 329.96C669.582 329.666 670.164 329.519 670.812 329.519C671.79 329.519 672.573 329.822 673.161 330.428C673.749 331.028 674.043 331.841 674.043 332.867L674.034 339.5H672.711ZM661.11 339.5V329.78H662.298V332.174H662.442V339.5H661.11ZM666.924 339.5L666.933 333.209C666.933 332.435 666.726 331.826 666.312 331.382C665.904 330.932 665.364 330.707 664.692 330.707C664.02 330.707 663.477 330.938 663.063 331.4C662.649 331.856 662.442 332.465 662.442 333.227L661.65 332.795C661.65 332.171 661.797 331.613 662.091 331.121C662.385 330.623 662.787 330.233 663.297 329.951C663.807 329.663 664.386 329.519 665.034 329.519C665.652 329.519 666.201 329.651 666.681 329.915C667.167 330.179 667.548 330.563 667.824 331.067C668.1 331.571 668.238 332.183 668.238 332.903L668.229 339.5H666.924ZM680.383 339.77C679.417 339.77 678.592 339.551 677.908 339.113C677.224 338.675 676.699 338.069 676.333 337.295C675.967 336.521 675.784 335.633 675.784 334.631C675.784 333.611 675.97 332.717 676.342 331.949C676.714 331.181 677.242 330.584 677.926 330.158C678.616 329.726 679.435 329.51 680.383 329.51C681.355 329.51 682.183 329.729 682.867 330.167C683.557 330.599 684.082 331.202 684.442 331.976C684.808 332.744 684.991 333.629 684.991 334.631C684.991 335.651 684.808 336.548 684.442 337.322C684.076 338.09 683.548 338.69 682.858 339.122C682.168 339.554 681.343 339.77 680.383 339.77ZM680.383 338.501C681.463 338.501 682.267 338.144 682.795 337.43C683.323 336.71 683.587 335.777 683.587 334.631C683.587 333.455 683.32 332.519 682.786 331.823C682.258 331.127 681.457 330.779 680.383 330.779C679.657 330.779 679.057 330.944 678.583 331.274C678.115 331.598 677.764 332.051 677.53 332.633C677.302 333.209 677.188 333.875 677.188 334.631C677.188 335.801 677.458 336.74 677.998 337.448C678.538 338.15 679.333 338.501 680.383 338.501ZM686.977 339.5V326.54H691.981C692.107 326.54 692.248 326.546 692.404 326.558C692.566 326.564 692.728 326.582 692.89 326.612C693.568 326.714 694.141 326.951 694.609 327.323C695.083 327.689 695.44 328.151 695.68 328.709C695.926 329.267 696.049 329.885 696.049 330.563C696.049 331.541 695.791 332.39 695.275 333.11C694.759 333.83 694.021 334.283 693.061 334.469L692.602 334.577H688.3V339.5H686.977ZM694.825 339.5L692.269 334.226L693.538 333.74L696.346 339.5H694.825ZM688.3 333.317H691.945C692.053 333.317 692.179 333.311 692.323 333.299C692.467 333.287 692.608 333.266 692.746 333.236C693.19 333.14 693.553 332.957 693.835 332.687C694.123 332.417 694.336 332.096 694.474 331.724C694.618 331.352 694.69 330.965 694.69 330.563C694.69 330.161 694.618 329.774 694.474 329.402C694.336 329.024 694.123 328.7 693.835 328.43C693.553 328.16 693.19 327.977 692.746 327.881C692.608 327.851 692.467 327.833 692.323 327.827C692.179 327.815 692.053 327.809 691.945 327.809H688.3V333.317ZM702.445 339.77C701.497 339.77 700.675 339.56 699.979 339.14C699.289 338.72 698.752 338.129 698.368 337.367C697.984 336.605 697.792 335.711 697.792 334.685C697.792 333.623 697.981 332.705 698.359 331.931C698.737 331.157 699.268 330.56 699.952 330.14C700.642 329.72 701.455 329.51 702.391 329.51C703.351 329.51 704.17 329.732 704.848 330.176C705.526 330.614 706.039 331.244 706.387 332.066C706.735 332.888 706.894 333.869 706.864 335.009H705.514V334.541C705.49 333.281 705.217 332.33 704.695 331.688C704.179 331.046 703.423 330.725 702.427 330.725C701.383 330.725 700.582 331.064 700.024 331.742C699.472 332.42 699.196 333.386 699.196 334.64C699.196 335.864 699.472 336.815 700.024 337.493C700.582 338.165 701.371 338.501 702.391 338.501C703.087 338.501 703.693 338.342 704.209 338.024C704.731 337.7 705.142 337.235 705.442 336.629L706.675 337.106C706.291 337.952 705.724 338.609 704.974 339.077C704.23 339.539 703.387 339.77 702.445 339.77ZM698.728 335.009V333.902H706.153V335.009H698.728ZM712.975 339.77C712.027 339.77 711.205 339.56 710.509 339.14C709.819 338.72 709.282 338.129 708.898 337.367C708.514 336.605 708.322 335.711 708.322 334.685C708.322 333.623 708.511 332.705 708.889 331.931C709.267 331.157 709.798 330.56 710.482 330.14C711.172 329.72 711.985 329.51 712.921 329.51C713.881 329.51 714.7 329.732 715.378 330.176C716.056 330.614 716.569 331.244 716.917 332.066C717.265 332.888 717.424 333.869 717.394 335.009H716.044V334.541C716.02 333.281 715.747 332.33 715.225 331.688C714.709 331.046 713.953 330.725 712.957 330.725C711.913 330.725 711.112 331.064 710.554 331.742C710.002 332.42 709.726 333.386 709.726 334.64C709.726 335.864 710.002 336.815 710.554 337.493C711.112 338.165 711.901 338.501 712.921 338.501C713.617 338.501 714.223 338.342 714.739 338.024C715.261 337.7 715.672 337.235 715.972 336.629L717.205 337.106C716.821 337.952 716.254 338.609 715.504 339.077C714.76 339.539 713.917 339.77 712.975 339.77ZM709.258 335.009V333.902H716.683V335.009H709.258ZM719.571 339.5V326.27H720.894V339.5H719.571Z" fill="#F6F6F6"/>
</svg>
