<svg width="22" height="22" viewBox="0 0 22 22" fill="none" xmlns="http://www.w3.org/2000/svg">
<path d="M19.6351 10.0118C19.7992 9.93944 19.9384 9.8205 20.0356 9.66974C20.1327 9.51898 20.1835 9.34303 20.1817 9.16368C20.1798 8.98433 20.1254 8.80946 20.0251 8.66075C19.9249 8.51203 19.7832 8.39599 19.6176 8.327L11.7609 4.74834C11.522 4.63939 11.2626 4.58301 11.0001 4.58301C10.7375 4.58301 10.4781 4.63939 10.2392 4.74834L2.38339 8.32333C2.2202 8.39481 2.08137 8.51229 1.98388 8.66142C1.88639 8.81054 1.83447 8.98484 1.83447 9.163C1.83447 9.34116 1.88639 9.51546 1.98388 9.66459C2.08137 9.81371 2.2202 9.93119 2.38339 10.0027L10.2392 13.585C10.4781 13.6939 10.7375 13.7503 11.0001 13.7503C11.2626 13.7503 11.522 13.6939 11.7609 13.585L19.6351 10.0118Z" stroke="#383838" stroke-width="1.83333" stroke-linecap="round" stroke-linejoin="round"/>
<path d="M20.1665 9.16666V14.6667" stroke="#383838" stroke-width="1.83333" stroke-linecap="round" stroke-linejoin="round"/>
<path d="M5.5 11.4583V14.6667C5.5 15.396 6.07946 16.0955 7.11091 16.6112C8.14236 17.1269 9.54131 17.4167 11 17.4167C12.4587 17.4167 13.8576 17.1269 14.8891 16.6112C15.9205 16.0955 16.5 15.396 16.5 14.6667V11.4583" stroke="#383838" stroke-width="1.83333" stroke-linecap="round" stroke-linejoin="round"/>
</svg>
