<svg width="22" height="22" viewBox="0 0 22 22" fill="none" xmlns="http://www.w3.org/2000/svg">
<path d="M9.1665 1.83334V3.66667" stroke="#383838" stroke-width="1.83333" stroke-linecap="round" stroke-linejoin="round"/>
<path d="M12.8335 1.83334V3.66667" stroke="#383838" stroke-width="1.83333" stroke-linecap="round" stroke-linejoin="round"/>
<path d="M14.6667 7.33334C14.9098 7.33334 15.1429 7.42991 15.3148 7.60182C15.4868 7.77373 15.5833 8.00689 15.5833 8.25V15.5833C15.5833 16.5558 15.197 17.4884 14.5094 18.1761C13.8218 18.8637 12.8891 19.25 11.9167 19.25H6.41667C5.44421 19.25 4.51158 18.8637 3.82394 18.1761C3.13631 17.4884 2.75 16.5558 2.75 15.5833V8.25C2.75 8.00689 2.84658 7.77373 3.01849 7.60182C3.19039 7.42991 3.42355 7.33334 3.66667 7.33334H16.5C17.4725 7.33334 18.4051 7.71964 19.0927 8.40728C19.7804 9.09491 20.1667 10.0275 20.1667 11C20.1667 11.9725 19.7804 12.9051 19.0927 13.5927C18.4051 14.2804 17.4725 14.6667 16.5 14.6667H15.5833" stroke="#383838" stroke-width="1.83333" stroke-linecap="round" stroke-linejoin="round"/>
<path d="M5.5 1.83334V3.66667" stroke="#383838" stroke-width="1.83333" stroke-linecap="round" stroke-linejoin="round"/>
</svg>
