<svg width="24" height="23" viewBox="0 0 24 23" fill="none" xmlns="http://www.w3.org/2000/svg">
<path fill-rule="evenodd" clip-rule="evenodd" d="M12.1445 0.00976562C16.0225 0.206509 19.1064 3.41301 19.1064 7.33984L19.0967 7.71777C19.0941 7.76776 19.0885 7.81747 19.085 7.86719C21.9468 8.86874 24 11.5923 24 14.7959L23.9902 15.1738C23.7935 19.0517 20.5868 22.1355 16.6602 22.1357L16.2822 22.126C14.6589 22.0437 13.1751 21.4331 11.998 20.4639C10.7306 21.5069 9.10938 22.1356 7.33984 22.1357L6.96191 22.126C3.20908 21.9357 0.200153 18.9266 0.00976562 15.1738L0 14.7959C4.10593e-05 11.764 1.83799 9.16129 4.46094 8.04199C4.45074 7.93457 4.44204 7.8265 4.43652 7.71777L4.42676 7.33984C4.42678 3.28622 7.71297 0 11.7666 0L12.1445 0.00976562ZM4.62988 9.0625C2.48388 10.0784 1.00004 12.2639 1 14.7959C1.00004 18.2972 3.83851 21.1357 7.33984 21.1357C8.8229 21.1356 10.1858 20.6248 11.2656 19.7715C10.1382 18.5498 9.41993 16.945 9.33008 15.1738L9.32031 14.7959C9.32032 14.6182 9.32743 14.4421 9.33984 14.2676C7.00887 13.4511 5.2144 11.4929 4.62988 9.0625ZM18.9424 8.88086C18.4395 11.2339 16.8099 13.1676 14.6445 14.0918C14.6666 14.3236 14.6797 14.5584 14.6797 14.7959L14.6699 15.1738C14.5801 16.9453 13.8601 18.5497 12.7324 19.7715C13.8125 20.6252 15.1766 21.1357 16.6602 21.1357C20.1613 21.1355 23 18.2971 23 14.7959C23 12.0994 21.3156 9.79731 18.9424 8.88086ZM13.667 14.4287C13.0607 14.5909 12.4241 14.6797 11.7666 14.6797L11.3887 14.6699C11.0269 14.6516 10.6723 14.606 10.3262 14.5371C10.3227 14.623 10.3203 14.7092 10.3203 14.7959C10.3203 16.454 10.957 17.963 11.999 19.0928C13.0414 17.963 13.6797 16.4542 13.6797 14.7959C13.6797 14.6726 13.6739 14.5503 13.667 14.4287ZM11.999 10.498C11.2269 11.3349 10.6774 12.3803 10.4443 13.54C10.8709 13.6306 11.313 13.6797 11.7666 13.6797C12.3785 13.6797 12.9695 13.5905 13.5293 13.4287C13.284 12.3133 12.7465 11.308 11.999 10.498ZM7.33984 8.45605C6.72753 8.45605 6.13533 8.54408 5.5752 8.70605C6.03407 10.795 7.52288 12.4965 9.48242 13.2539C9.76203 11.9462 10.3902 10.768 11.2646 9.82031C10.1849 8.96736 8.82258 8.45618 7.33984 8.45605ZM16.6602 8.45605C15.1766 8.45605 13.8125 8.96665 12.7324 9.82031C13.5666 10.724 14.1762 11.8368 14.4736 13.0723C16.2563 12.2289 17.5827 10.5803 17.9814 8.59473C17.5552 8.50433 17.1133 8.45608 16.6602 8.45605ZM11.7666 1C8.26526 1 5.42678 3.83851 5.42676 7.33984C5.42676 7.46275 5.4306 7.58487 5.4375 7.70605C6.04416 7.54373 6.682 7.45605 7.33984 7.45605L7.71777 7.46582C9.33931 7.54819 10.8207 8.15853 11.9971 9.12598C13.2649 8.0822 14.8898 7.45605 16.6602 7.45605L17.0381 7.46582C17.3995 7.48417 17.7539 7.52889 18.0996 7.59766C18.103 7.51214 18.1064 7.4262 18.1064 7.33984C18.1064 3.83854 15.2679 1.00005 11.7666 1Z" fill="#222222"/>
</svg>
