<svg width="103" height="102" viewBox="0 0 103 102" fill="none" xmlns="http://www.w3.org/2000/svg">
<path d="M51.5 79C79.9427 79 103 84.1487 103 90.5C103 96.8513 79.9427 102 51.5 102C23.0573 102 0 96.8513 0 90.5C0 84.1487 23.0573 79 51.5 79ZM51.5 80C37.3294 80 24.5308 81.2829 15.3018 83.3438C10.6792 84.376 7.0063 85.5922 4.51367 86.9082C3.26656 87.5666 2.36313 88.2256 1.7832 88.8584C1.20854 89.4856 1 90.0306 1 90.5C1 90.9694 1.20854 91.5144 1.7832 92.1416C2.36313 92.7744 3.26656 93.4334 4.51367 94.0918C7.0063 95.4078 10.6792 96.624 15.3018 97.6562C24.5308 99.7171 37.3294 101 51.5 101C65.6706 101 78.4692 99.7171 87.6982 97.6562C92.3208 96.624 95.9937 95.4078 98.4863 94.0918C99.7334 93.4334 100.637 92.7744 101.217 92.1416C101.791 91.5144 102 90.9694 102 90.5C102 90.0306 101.791 89.4856 101.217 88.8584C100.637 88.2256 99.7334 87.5666 98.4863 86.9082C95.9937 85.5922 92.3208 84.376 87.6982 83.3438C78.4692 81.2829 65.6706 80 51.5 80ZM51.5 0C79.9427 0 103 5.14873 103 11.5C103 13.6992 100.235 15.753 95.4395 17.5C100.235 19.247 103 21.3008 103 23.5C103 25.6992 100.235 27.753 95.4395 29.5C100.235 31.247 103 33.3008 103 35.5C103 37.6992 100.235 39.753 95.4395 41.5C100.235 43.247 103 45.3008 103 47.5C103 49.6992 100.235 51.753 95.4395 53.5C100.235 55.247 103 57.3008 103 59.5C103 65.8513 79.9427 71 51.5 71C23.0573 71 0 65.8513 0 59.5C0 57.3009 2.76462 55.247 7.55957 53.5C2.76462 51.753 0 49.6991 0 47.5C0 45.3009 2.76462 43.247 7.55957 41.5C2.76462 39.753 0 37.6991 0 35.5C0 33.3009 2.76462 31.247 7.55957 29.5C2.76462 27.753 0 25.6991 0 23.5C0 21.3009 2.76462 19.247 7.55957 17.5C2.76462 15.753 0 13.6991 0 11.5C0 5.14873 23.0573 0 51.5 0ZM93.9072 54.0244C84.6162 57.0289 69.0881 59 51.5 59C33.9113 59 18.3827 57.0291 9.0918 54.0244C7.29148 54.6204 5.7561 55.2523 4.51367 55.9082C3.26656 56.5666 2.36313 57.2256 1.7832 57.8584C1.20854 58.4856 1 59.0306 1 59.5C1 59.9694 1.20854 60.5144 1.7832 61.1416C2.36313 61.7744 3.26656 62.4334 4.51367 63.0918C7.0063 64.4078 10.6792 65.624 15.3018 66.6562C24.5308 68.7171 37.3294 70 51.5 70C65.6706 70 78.4692 68.7171 87.6982 66.6562C92.3208 65.624 95.9937 64.4078 98.4863 63.0918C99.7334 62.4334 100.637 61.7744 101.217 61.1416C101.791 60.5144 102 59.9694 102 59.5C102 59.0306 101.791 58.4856 101.217 57.8584C100.637 57.2256 99.7334 56.5666 98.4863 55.9082C97.2437 55.2522 95.7079 54.6204 93.9072 54.0244ZM51.5 49C37.3294 49 24.5308 50.2829 15.3018 52.3438C13.674 52.7072 12.1644 53.0946 10.7822 53.5C12.1644 53.9054 13.674 54.2928 15.3018 54.6562C24.5308 56.7171 37.3294 58 51.5 58C65.6706 58 78.4692 56.7171 87.6982 54.6562C89.3256 54.2929 90.8349 53.9053 92.2168 53.5C90.8349 53.0947 89.3256 52.7071 87.6982 52.3438C78.4692 50.2829 65.6706 49 51.5 49ZM93.9072 42.0244C84.6162 45.0289 69.0881 47 51.5 47C33.9113 47 18.3827 45.0291 9.0918 42.0244C7.29148 42.6204 5.7561 43.2523 4.51367 43.9082C3.26656 44.5666 2.36313 45.2256 1.7832 45.8584C1.20854 46.4856 1 47.0306 1 47.5C1 47.9694 1.20854 48.5144 1.7832 49.1416C2.36313 49.7744 3.26656 50.4334 4.51367 51.0918C5.75603 51.7477 7.29161 52.3787 9.0918 52.9746C18.3827 49.97 33.9115 48 51.5 48C69.0879 48 84.6162 49.9702 93.9072 52.9746C95.7078 52.3786 97.2438 51.7478 98.4863 51.0918C99.7334 50.4334 100.637 49.7744 101.217 49.1416C101.791 48.5144 102 47.9694 102 47.5C102 47.0306 101.791 46.4856 101.217 45.8584C100.637 45.2256 99.7334 44.5666 98.4863 43.9082C97.2437 43.2522 95.7079 42.6204 93.9072 42.0244ZM51.5 37C37.3294 37 24.5308 38.2829 15.3018 40.3438C13.674 40.7072 12.1644 41.0946 10.7822 41.5C12.1644 41.9054 13.674 42.2928 15.3018 42.6562C24.5308 44.7171 37.3294 46 51.5 46C65.6706 46 78.4692 44.7171 87.6982 42.6562C89.3256 42.2929 90.8349 41.9053 92.2168 41.5C90.8349 41.0947 89.3256 40.7071 87.6982 40.3438C78.4692 38.2829 65.6706 37 51.5 37ZM93.9072 30.0244C84.6162 33.0289 69.0881 35 51.5 35C33.9113 35 18.3827 33.0291 9.0918 30.0244C7.29148 30.6204 5.7561 31.2523 4.51367 31.9082C3.26656 32.5666 2.36313 33.2256 1.7832 33.8584C1.20854 34.4856 1 35.0306 1 35.5C1 35.9694 1.20854 36.5144 1.7832 37.1416C2.36313 37.7744 3.26656 38.4334 4.51367 39.0918C5.75603 39.7477 7.29161 40.3787 9.0918 40.9746C18.3827 37.97 33.9115 36 51.5 36C69.0879 36 84.6162 37.9702 93.9072 40.9746C95.7078 40.3786 97.2438 39.7478 98.4863 39.0918C99.7334 38.4334 100.637 37.7744 101.217 37.1416C101.791 36.5144 102 35.9694 102 35.5C102 35.0306 101.791 34.4856 101.217 33.8584C100.637 33.2256 99.7334 32.5666 98.4863 31.9082C97.2437 31.2522 95.7079 30.6204 93.9072 30.0244ZM51.5 25C37.3294 25 24.5308 26.2829 15.3018 28.3438C13.674 28.7072 12.1644 29.0946 10.7822 29.5C12.1644 29.9054 13.674 30.2928 15.3018 30.6562C24.5308 32.7171 37.3294 34 51.5 34C65.6706 34 78.4692 32.7171 87.6982 30.6562C89.3256 30.2929 90.8349 29.9053 92.2168 29.5C90.8349 29.0947 89.3256 28.7071 87.6982 28.3438C78.4692 26.2829 65.6706 25 51.5 25ZM93.9072 18.0244C84.6162 21.0289 69.0881 23 51.5 23C33.9113 23 18.3827 21.0291 9.0918 18.0244C7.29148 18.6204 5.7561 19.2523 4.51367 19.9082C3.26656 20.5666 2.36313 21.2256 1.7832 21.8584C1.20854 22.4856 1 23.0306 1 23.5C1 23.9694 1.20854 24.5144 1.7832 25.1416C2.36313 25.7744 3.26656 26.4334 4.51367 27.0918C5.75603 27.7477 7.29161 28.3787 9.0918 28.9746C18.3827 25.97 33.9115 24 51.5 24C69.0879 24 84.6162 25.9702 93.9072 28.9746C95.7078 28.3786 97.2438 27.7478 98.4863 27.0918C99.7334 26.4334 100.637 25.7744 101.217 25.1416C101.791 24.5144 102 23.9694 102 23.5C102 23.0306 101.791 22.4856 101.217 21.8584C100.637 21.2256 99.7334 20.5666 98.4863 19.9082C97.2437 19.2522 95.7079 18.6204 93.9072 18.0244ZM51.5 13C37.3294 13 24.5308 14.2829 15.3018 16.3438C13.674 16.7072 12.1644 17.0946 10.7822 17.5C12.1644 17.9054 13.674 18.2928 15.3018 18.6562C24.5308 20.7171 37.3294 22 51.5 22C65.6706 22 78.4692 20.7171 87.6982 18.6562C89.3256 18.2929 90.8349 17.9053 92.2168 17.5C90.8349 17.0947 89.3256 16.7071 87.6982 16.3438C78.4692 14.2829 65.6706 13 51.5 13ZM51.5 1C37.3294 1 24.5308 2.28289 15.3018 4.34375C10.6792 5.37598 7.0063 6.59224 4.51367 7.9082C3.26656 8.56664 2.36313 9.22555 1.7832 9.8584C1.20854 10.4856 1 11.0306 1 11.5C1 11.9694 1.20854 12.5144 1.7832 13.1416C2.36313 13.7744 3.26656 14.4334 4.51367 15.0918C5.75603 15.7477 7.29161 16.3787 9.0918 16.9746C18.3827 13.97 33.9115 12 51.5 12C69.0879 12 84.6162 13.9702 93.9072 16.9746C95.7078 16.3786 97.2438 15.7478 98.4863 15.0918C99.7334 14.4334 100.637 13.7744 101.217 13.1416C101.791 12.5144 102 11.9694 102 11.5C102 11.0306 101.791 10.4856 101.217 9.8584C100.637 9.22555 99.7334 8.56664 98.4863 7.9082C95.9937 6.59224 92.3208 5.37599 87.6982 4.34375C78.4692 2.28289 65.6706 1 51.5 1Z" fill="#222222"/>
</svg>
