<svg width="103" height="103" viewBox="0 0 103 103" fill="none" xmlns="http://www.w3.org/2000/svg">
<path d="M51.5 0C79.9427 0 103 23.0573 103 51.5C103 79.9427 79.9427 103 51.5 103C23.0573 103 0 79.9427 0 51.5C0 23.0573 23.0573 0 51.5 0ZM51.5 1C23.6096 1 1 23.6096 1 51.5C1 79.3904 23.6096 102 51.5 102C79.3904 102 102 79.3904 102 51.5C102 23.6096 79.3904 1 51.5 1ZM23.5 18.5C23.7759 18.5003 23.999 18.724 23.999 19C23.999 19.276 23.7759 19.4997 23.5 19.5H20.207L83.5 82.793V79.5C83.5002 79.2241 83.724 79.001 84 79.001C84.276 79.001 84.4998 79.2241 84.5 79.5V84C84.5 84.2761 84.2761 84.5 84 84.5H79.5C79.2241 84.4998 79.001 84.276 79.001 84C79.001 83.724 79.2241 83.5002 79.5 83.5H82.793L19.5 20.207V23.5C19.4997 23.7759 19.276 23.999 19 23.999C18.724 23.999 18.5003 23.7759 18.5 23.5V19C18.5 18.7239 18.7239 18.5 19 18.5H23.5Z" fill="#222222"/>
</svg>
