<svg width="140" height="140" viewBox="0 0 140 140" fill="none" xmlns="http://www.w3.org/2000/svg">
<path d="M70 0C108.66 0 140 31.3401 140 70C140 108.66 108.66 140 70 140C31.3401 140 0 108.66 0 70C0 31.3401 31.3401 0 70 0ZM70 1.35938C32.0907 1.35938 1.35938 32.0907 1.35938 70C1.35938 107.909 32.0907 138.641 70 138.641C107.909 138.641 138.641 107.909 138.641 70C138.641 32.0907 107.909 1.35938 70 1.35938ZM71.627 33.9922C91.4573 34.4948 107.379 50.7282 107.379 70.6797L107.366 71.627C106.864 91.4573 90.6311 107.379 70.6797 107.379L69.7324 107.366C50.2167 106.872 34.4867 91.1427 33.9922 71.627L33.9805 70.6797C33.9805 50.4114 50.4114 33.9805 70.6797 33.9805L71.627 33.9922ZM70.6797 35.3398C51.1621 35.3398 35.3399 51.1621 35.3398 70.6797C35.3399 90.1972 51.1621 106.02 70.6797 106.02C90.1971 106.019 106.019 90.1971 106.02 70.6797C106.019 51.1622 90.1972 35.34 70.6797 35.3398ZM70.6797 66.6016C72.9317 66.6016 74.7578 68.4277 74.7578 70.6797C74.7578 72.9317 72.9317 74.7568 70.6797 74.7568C68.4278 74.7567 66.6026 72.9316 66.6025 70.6797C66.6025 68.4277 68.4278 66.6017 70.6797 66.6016Z" fill="#222222"/>
</svg>
