<svg width="98" height="98" viewBox="0 0 98 98" fill="none" xmlns="http://www.w3.org/2000/svg">
<path fill-rule="evenodd" clip-rule="evenodd" d="M48.7899 18.6111C68.9988 2.73164 87.8934 -4.28676 94.8807 2.69999L95.0829 2.90995C101.728 10.0595 94.6921 28.7801 78.9696 48.7898C94.6925 68.7998 101.728 87.5211 95.0829 94.6707L94.8807 94.8807C87.8933 101.867 68.9989 94.8483 48.7899 78.9686C28.581 94.8479 9.68732 101.868 2.70007 94.8807C-4.28662 87.8934 2.73116 68.9985 18.6102 48.7898C2.73152 28.5814 -4.28655 9.68717 2.70007 2.69999C9.68728 -4.28677 28.5812 2.73212 48.7899 18.6111ZM19.2489 49.5975C13.498 56.9393 8.93622 64.089 5.81042 70.5281C3.11273 76.0854 1.50853 81.0619 1.10241 85.1434C0.695456 89.2339 1.50075 92.2671 3.4071 94.1736C5.31368 96.0801 8.34759 96.8854 12.4383 96.4783C16.5196 96.0721 21.4957 94.4687 27.0526 91.7713C33.4919 88.6454 40.6413 84.0819 47.9833 78.3309C43.3482 74.6409 38.6503 70.4915 34.0194 65.9412L32.8241 64.7566C27.8075 59.74 23.2567 54.632 19.2489 49.5975ZM78.3309 49.5965C74.3231 54.631 69.7734 59.74 64.7567 64.7566L63.5614 65.9412C58.9305 70.4915 54.2326 74.641 49.5975 78.3309C56.9396 84.082 64.0888 88.6454 70.5282 91.7713C76.0854 94.4689 81.062 96.0722 85.1434 96.4783C89.2339 96.8852 92.2672 96.0799 94.1737 94.1736C96.08 92.2671 96.8853 89.2338 96.4784 85.1434C96.0723 81.0619 94.469 76.0853 91.7714 70.5281C88.6454 64.0886 84.0823 56.9388 78.3309 49.5965ZM48.7899 19.8846C43.7292 23.9011 38.5867 28.4764 33.5321 33.531C28.4774 38.5857 23.9022 43.7291 19.8856 48.7898C23.9024 53.8508 28.4772 58.9947 33.5321 64.0496C38.5866 69.1041 43.7294 73.6786 48.7899 77.6951C53.8508 73.6784 58.9948 69.1044 64.0497 64.0496C69.1045 58.9948 73.6785 53.8507 77.6952 48.7898C73.6786 43.7292 69.1043 38.5857 64.0497 33.531C58.9947 28.4761 53.851 23.9014 48.7899 19.8846ZM49.2342 30.7342C58.8992 30.7342 66.7342 38.5692 66.7342 48.2342C66.7341 57.899 58.8991 65.7341 49.2342 65.7342C39.5693 65.7342 31.7344 57.8991 31.7342 48.2342C31.7342 38.5692 39.5693 30.7342 49.2342 30.7342ZM49.2342 31.7342C40.1215 31.7342 32.7342 39.1215 32.7342 48.2342C32.7344 57.3468 40.1216 64.7342 49.2342 64.7342C58.3468 64.7341 65.7341 57.3467 65.7342 48.2342C65.7342 39.1215 58.3469 31.7342 49.2342 31.7342ZM94.1737 3.40702C92.2672 1.5007 89.2339 0.695425 85.1434 1.10234C81.062 1.50846 76.0854 3.11269 70.5282 5.81034C64.089 8.93615 56.9393 13.4979 49.5975 19.2488C54.2328 22.9388 58.9303 27.089 63.5614 31.6394L64.7567 32.824C69.7732 37.8405 74.3232 42.9488 78.3309 47.9832C84.0821 40.6411 88.6455 33.4919 91.7714 27.0525C94.469 21.4953 96.0723 16.5187 96.4784 12.4373C96.8853 8.34685 96.0801 5.31351 94.1737 3.40702ZM12.4383 1.10234C8.34761 0.695298 5.31368 1.50059 3.4071 3.40702C1.50076 5.31354 0.69547 8.3468 1.10241 12.4373C1.50853 16.5188 3.11273 21.4952 5.81042 27.0525C8.93613 33.4915 13.4983 40.6406 19.2489 47.9822C23.2566 42.9479 27.8077 37.8405 32.8241 32.824L34.0194 31.6404C38.6505 27.09 43.348 22.9389 47.9833 19.2488C40.6414 13.498 33.4917 8.93517 27.0526 5.80937C21.4957 3.11192 16.5196 1.50852 12.4383 1.10234Z" fill="#222222"/>
</svg>
