<svg width="103" height="95" viewBox="0 0 103 95" fill="none" xmlns="http://www.w3.org/2000/svg">
<path d="M50.5 0C67.897 0 82 14.103 82 31.5C82 32.2619 81.9712 33.0173 81.918 33.7656C94.195 38.0668 103 49.7543 103 63.5C103 80.897 88.897 95 71.5 95C63.9057 95 56.9398 92.3117 51.5 87.8359C46.0602 92.3117 39.0943 95 31.5 95C14.103 95 0 80.897 0 63.5C0 50.4887 7.88911 39.3209 19.1445 34.5166C19.0502 33.5237 19 32.5176 19 31.5C19 14.103 33.103 0 50.5 0ZM19.2588 35.5576C8.50912 40.2736 1 51.0093 1 63.5C1 80.3447 14.6553 94 31.5 94C38.7886 94 45.4781 91.4411 50.7246 87.1758C44.1507 81.4026 40 72.9366 40 63.5C40 62.7378 40.0278 61.982 40.0811 61.2334C29.0326 57.3621 20.7958 47.5098 19.2588 35.5576ZM81.8281 34.7939C80.6247 46.3746 73.1478 56.089 62.8545 60.4824C62.9489 61.4757 63 62.4821 63 63.5C63 72.9369 58.8486 81.4026 52.2744 87.1758C57.521 91.4414 64.2112 94 71.5 94C88.3447 94 102 80.3447 102 63.5C102 50.2806 93.5897 39.0263 81.8281 34.7939ZM61.8857 60.877C58.3543 62.2466 54.5153 63 50.5 63C47.2121 63 44.0422 62.4951 41.0625 61.5605C41.0223 62.2019 41 62.8485 41 63.5C41 72.6926 45.0675 80.9345 51.5 86.5264C57.9325 80.9345 62 72.6926 62 63.5C62 62.6163 61.9594 61.7416 61.8857 60.877ZM51.5 40.4727C45.7672 45.4561 41.9144 52.5448 41.1436 60.5352C44.0921 61.4846 47.2357 62 50.5 62C54.4849 62 58.2909 61.2346 61.7803 59.8447C60.8596 52.137 57.0671 45.312 51.5 40.4727ZM31.5 33C27.5149 33 23.7083 33.7643 20.2188 35.1543C21.605 46.7632 29.5103 56.3684 40.1709 60.2051C41.013 52.1038 44.9256 44.9157 50.7246 39.8232C45.4782 35.5582 38.7883 33 31.5 33ZM71.5 33C64.2114 33 57.5209 35.5579 52.2744 39.8232C57.8908 44.7551 61.7383 51.6522 62.7402 59.4414C72.6295 55.103 79.7746 45.6713 80.8555 34.4639C77.9073 33.5147 74.7638 33 71.5 33ZM50.5 1C33.6553 1 20 14.6553 20 31.5C20 32.3834 20.0397 33.2578 20.1133 34.1221C23.6449 32.7523 27.4845 32 31.5 32C39.0941 32 46.0603 34.6876 51.5 39.1631C56.9397 34.6876 63.9059 32 71.5 32C74.7875 32 77.9572 32.5042 80.9365 33.4385C80.9767 32.7974 81 32.1512 81 31.5C81 14.6553 67.3447 1 50.5 1Z" fill="#222222"/>
</svg>
