<svg width="18" height="18" viewBox="0 0 18 18" fill="none" xmlns="http://www.w3.org/2000/svg">
<g clip-path="url(#clip0_311_286)">
<path d="M4.93192 7.02594C5.62807 5.72095 7.01644 4.83105 8.6156 4.83105C10.9129 4.83105 12.7752 6.66749 12.7752 8.93285C12.7752 11.1982 10.9129 13.0347 8.6156 13.0347C7.05063 13.0347 5.68769 12.1823 4.97767 10.9228L4.98066 10.9281L1.35492 14.5033L3.00328 16.1287L5.97652 13.1968L4.67729 17.1403L6.89412 17.8505L8.19271 13.9096L8.8497 18L11.1521 17.6403L10.4951 13.5514L12.9646 16.9029L14.8503 15.5517L12.3794 12.1983L16.1241 14.0797L17.1823 12.0316L13.439 10.1508H17.6396V7.85216H13.4364L17.1823 5.97013L16.1241 3.92197L12.3824 5.80189L14.8511 2.45126L12.9652 1.10029L10.4931 4.45557L11.1512 0.359667L8.84885 5.51343e-07L8.19121 4.09485L6.89177 0.151161L4.67494 0.861429L5.97331 4.80195L3.00349 1.87318L1.35514 3.49842L4.93192 7.02594ZM1.97065 7.85006H-0.360352V10.1487H1.97065V7.85006Z" fill="#F6F6F6"/>
</g>
<defs>
<clipPath id="clip0_311_286">
<rect width="18" height="18" fill="white"/>
</clipPath>
</defs>
</svg>
