<svg width="27" height="27" viewBox="0 0 27 27" fill="none" xmlns="http://www.w3.org/2000/svg">
<path d="M13.0078 0C20.1919 0 26.0156 5.82367 26.0156 13.0078C26.0156 20.192 20.192 26.0156 13.0078 26.0156C5.82378 26.0155 0 20.1919 0 13.0078C2.10991e-05 5.82376 5.82379 0.0001362 13.0078 0ZM13.0059 8.45801C9.83164 8.45803 7.25805 10.9667 7.25781 14.0615C7.25781 17.1565 9.83149 19.666 13.0059 19.666C16.1802 19.666 18.7539 17.1566 18.7539 14.0615C18.7537 10.9667 16.1801 8.45801 13.0059 8.45801Z" fill="#39B15B"/>
<path d="M26.0161 13.0081C26.0161 16.458 24.6456 19.7667 22.2061 22.2062C19.7666 24.6456 16.458 26.0161 13.008 26.0161C9.5581 26.0161 6.24945 24.6456 3.80997 22.2062C1.37049 19.7667 5.20928e-07 16.458 0 13.0081L13.008 13.0081L26.0161 13.0081Z" fill="#257A3F"/>
</svg>
