<svg width="37" height="37" viewBox="0 0 37 37" fill="none" xmlns="http://www.w3.org/2000/svg">
<path fill-rule="evenodd" clip-rule="evenodd" d="M18.4997 7.05758C26.1626 1.03627 33.3272 -1.6253 35.9772 1.0234C38.6268 3.673 35.9639 10.8373 29.942 18.5009C35.9638 26.1645 38.6268 33.3289 35.9772 35.9785C33.327 38.6271 26.1628 35.964 18.4997 29.9423C10.8364 35.964 3.67261 38.627 1.02309 35.9775C-1.6256 33.3275 1.03777 26.1639 7.05923 18.5009C1.03778 10.838 -1.62542 3.67445 1.02309 1.02438C3.67252 -1.62504 10.8367 1.03642 18.4997 7.05758ZM7.69985 19.3027C5.5843 22.017 3.90915 24.6512 2.76137 27.0156C1.75607 29.0866 1.1799 30.8991 1.03579 32.3466C0.890844 33.8033 1.19241 34.7324 1.73012 35.2705C2.26816 35.8085 3.19779 36.1108 4.65493 35.9658C6.10248 35.8217 7.91492 35.2455 9.98598 34.2402C12.3499 33.0927 14.9832 31.4176 17.6969 29.3027C16.253 28.129 14.7958 26.8391 13.3532 25.4463L12.4469 24.5556C10.7094 22.8181 9.12041 21.0503 7.69985 19.3027ZM29.3014 19.3027C27.8811 21.0501 26.2926 22.8174 24.5553 24.5547L23.6471 25.4463C22.2045 26.8391 20.7473 28.128 19.3034 29.3017C22.0174 31.417 24.651 33.0925 27.0153 34.2402C29.0863 35.2455 30.8988 35.8217 32.3463 35.9658C33.8029 36.1107 34.732 35.8091 35.2702 35.2715C35.8082 34.7334 36.1105 33.8037 35.9655 32.3466C35.8214 30.899 35.2453 29.0859 34.2399 27.0146C33.0921 24.6502 31.4168 22.0168 29.3014 19.3027ZM18.5006 8.33493C16.727 9.76603 14.9273 11.3799 13.154 13.1533C11.3807 14.9266 9.76673 16.7264 8.33559 18.5C9.76693 20.2739 11.3803 22.075 13.154 23.8486C14.9272 25.6218 16.7271 27.235 18.5006 28.666C20.2744 27.2347 22.0748 25.6211 23.8483 23.8476C25.6217 22.0742 27.2345 20.2737 28.6657 18.5C27.2348 16.7267 25.6213 14.9273 23.8483 13.1543C22.0747 11.3807 20.2746 9.76625 18.5006 8.33493ZM18.6686 11.6543C22.3335 11.6543 25.3043 14.6252 25.3043 18.29C25.3042 21.9548 22.3334 24.9257 18.6686 24.9257C15.0039 24.9257 12.033 21.9547 12.0329 18.29C12.0329 14.6252 15.0038 11.6543 18.6686 11.6543ZM18.6686 12.6543C15.5561 12.6543 13.0329 15.1775 13.0329 18.29C13.033 21.4025 15.5561 23.9257 18.6686 23.9257C21.7811 23.9257 24.3042 21.4025 24.3043 18.29C24.3043 15.1775 21.7812 12.6543 18.6686 12.6543ZM4.65493 1.0361C3.19779 0.891109 2.26816 1.19338 1.73012 1.73141C1.19249 2.26954 0.890855 3.19867 1.03579 4.65524C1.17994 6.10279 1.75607 7.91528 2.76137 9.98629C3.90908 12.3506 5.58447 14.984 7.69985 17.6982C9.12032 15.9507 10.7096 14.1836 12.4469 12.4463L13.3532 11.5547C14.7959 10.1617 16.2528 8.87202 17.6969 7.69821C14.9833 5.58342 12.3498 3.90917 9.98598 2.76169C7.91489 1.75636 6.1025 1.18021 4.65493 1.0361ZM35.2702 1.73044C34.7321 1.19272 33.803 0.891156 32.3463 1.0361C30.8988 1.18023 29.0863 1.75637 27.0153 2.76169C24.6511 3.90934 22.0173 5.58403 19.3034 7.69919C20.7474 8.873 22.2044 10.1627 23.6471 11.5556L24.5553 12.4472C26.292 14.184 27.8804 15.9503 29.3004 17.6972C31.4157 14.9832 33.0922 12.3506 34.2399 9.98629C35.2452 7.91523 35.8214 6.1028 35.9655 4.65524C36.1105 3.1981 35.8082 2.26847 35.2702 1.73044Z" fill="black"/>
</svg>
