<svg width="24" height="24" viewBox="0 0 24 24" fill="none" xmlns="http://www.w3.org/2000/svg">
<path d="M12 0C18.6274 0 24 5.37258 24 12C24 18.6274 18.6274 24 12 24C5.37258 24 0 18.6274 0 12C0 5.37258 5.37258 0 12 0ZM3.92676 4.53027C2.1108 6.49201 1 9.11597 1 12C1 18.0751 5.92487 23 12 23C14.8843 23 17.5079 21.8885 19.4697 20.0723H15.0732C14.7971 20.0723 14.5732 19.8484 14.5732 19.5723C14.5735 19.2964 14.7973 19.0723 15.0732 19.0723H18.3652L4.92676 5.63379V8.92676C4.92673 9.20288 4.70288 9.42676 4.42676 9.42676C4.15083 9.42653 3.92679 9.20273 3.92676 8.92676V4.53027ZM12 1C9.11623 1 6.49293 2.11109 4.53125 3.92676H8.92676C9.20273 3.92679 9.42653 4.15083 9.42676 4.42676C9.42676 4.70288 9.20288 4.92673 8.92676 4.92676H5.63379L19.0723 18.3652V15.0732C19.0723 14.7973 19.2964 14.5735 19.5723 14.5732C19.8484 14.5732 20.0723 14.7971 20.0723 15.0732V19.4697C21.8885 17.5079 23 14.8843 23 12C23 5.92487 18.0751 1 12 1Z" fill="#222222"/>
</svg>
