<svg width="1436" height="1433" viewBox="0 0 1436 1433" fill="none" xmlns="http://www.w3.org/2000/svg">
<g clip-path="url(#clip0_474_253)">
<rect x="-4" y="-37" width="1440" height="1470" fill="url(#paint0_linear_474_253)"/>
<g filter="url(#filter0_n_474_253)">
<rect x="-4" y="-37" width="1440" height="1470" fill="url(#paint1_linear_474_253)" fill-opacity="0.06"/>
</g>
<g filter="url(#filter1_f_474_253)" style="mix-blend-mode:overlay">
<path d="M-4.83676 999.397C-49.3094 988.699 -117.884 972.341 -170.687 934.029L-173.19 932.189L-181.616 925.9C-202.573 910.197 -233.914 885.898 -256.572 858.773L-257.799 857.291L-260.645 853.819C-275.618 835.501 -304.424 799.03 -321.911 751.615L-324.237 745.216C-332.34 723.099 -352.813 668.067 -352.418 603.461C-352.082 548.287 -343.297 494.911 -329.602 447.145C-302.991 354.33 -206.186 300.653 -113.382 327.253C-20.5772 353.854 33.0839 450.659 6.47283 543.475C0.833575 563.144 -2.46664 584.049 -2.78214 603.626C-2.68077 604.095 -2.52465 604.775 -2.28366 605.686C-1.7272 607.791 -0.854922 610.695 0.607366 615.016C1.66578 618.144 2.70027 621.054 4.01898 624.735C4.45991 625.337 4.99144 626.052 5.63104 626.888C6.54098 628.078 7.56606 629.387 8.75803 630.877C9.14578 631.207 9.59319 631.584 10.1054 632.01C14.2481 635.454 19.9704 639.935 28.0805 646.063C28.2176 646.111 28.3583 646.161 28.5031 646.211C37.4075 649.298 52.058 653.452 76.9732 659.446C93.0489 663.313 117.842 666.606 141.898 668.121C157.067 669.077 167.573 668.298 174.249 667.391C177.32 666.973 179.95 666.477 182.244 665.952C184.645 664.499 187.948 662.412 192.241 659.541C204.624 651.256 220.284 639.785 239.188 625.245C239.968 623.975 240.837 622.563 241.734 621.133C243.842 617.771 246.517 613.609 249.687 608.998C266.83 584.066 301.284 534.936 349.461 501.935C435.173 443.224 526.787 444.546 591.419 451.784C637.713 456.969 677.232 474.798 701.634 487.002C727.969 500.173 754.854 516.379 776.291 529.302C835.557 565.032 876.77 605.924 903.059 635.231C959.771 698.456 955.883 773.983 954.532 795.581C953.312 815.072 950.019 834.981 946.885 851.19C957.596 852.881 968.268 854.397 978.091 855.573C997.142 857.855 1008.61 857.334 1014.89 856.691C1020.96 856.068 1025.9 854.998 1034.87 852.516C1045.96 849.445 1053.32 846.63 1057.69 844.721C1110.4 790.394 1179.51 788.63 1215.4 795.143C1249.38 801.31 1273.26 815.982 1281.24 821.012C1300.75 833.313 1315.94 847.777 1323.9 855.605C1342.69 874.088 1364.67 899.514 1389.46 930.285C1426.33 976.06 1472.67 1046.07 1492.43 1075.06C1502.21 1089.4 1515.51 1108.75 1525.61 1128.58C1539.54 1155.95 1545.09 1178.9 1548.49 1194.24C1551.68 1208.64 1554.66 1223.74 1557.26 1239.1C1592.53 1250.24 1624.56 1272.62 1647.47 1305.21C1702.64 1383.69 1684.21 1491.86 1606.49 1547.71C1593.27 1559.93 1561.99 1587.88 1524.21 1610.65L1500.28 1625.07L1473.05 1631.31C1464.64 1633.24 1424.42 1643.84 1388.45 1645.98C1358.29 1647.77 1247.7 1648.67 1187.98 1543.6L1186.57 1541.1L1185.57 1539.25C1175.27 1520.05 1167.19 1496.52 1165.02 1469.55C1162.77 1441.68 1167.34 1416.57 1174.7 1395.85C1187.18 1360.73 1207.74 1338.49 1214.98 1331.04C1215.02 1330.97 1215.07 1330.91 1215.12 1330.84C1215.65 1330.07 1216.17 1329.29 1216.66 1328.54C1216.53 1327.12 1216.39 1325.58 1216.21 1323.94C1214.99 1312.25 1212.79 1297.42 1209.43 1280.72C1207.77 1278.25 1205.84 1275.4 1203.55 1272.03C1185.79 1245.99 1163.89 1213.2 1143.67 1184.95C1138.56 1186.51 1133.37 1188.03 1128.1 1189.49C1086.27 1201.07 1026.84 1213.56 936.468 1202.74C892.635 1197.49 830.849 1186.93 788.003 1175.28C739.645 1162.14 688.576 1145.6 639.915 1113.21C636.021 1110.62 595.05 1085.71 570.077 1036.71C536.304 970.451 550.513 906.863 568.307 868.623C573.395 857.69 578.739 846.943 582.874 838.6C585.41 833.486 587.59 829.067 589.553 825.022C569.475 812.96 556.049 805.143 545.228 799.732C544.62 799.428 544.05 799.149 543.52 798.891C541.771 801.325 539.852 804.044 537.764 807.081C545.459 795.89 513.22 855.119 461.044 895.638L456.43 899.212C433.299 917.09 409.269 934.99 386.599 950.156C366.397 963.67 332.68 985.186 295.483 997.107C254.42 1010.27 197.216 1021.95 119.874 1017.08C84.2319 1014.83 37.7474 1009.64 -4.83676 999.397ZM1322.33 1072.1C1322.77 1071.51 1323.21 1070.91 1323.65 1070.32C1323.21 1070.91 1322.77 1071.51 1322.33 1072.1ZM1078.73 1104.9C1077.4 1103.6 1077.46 1103.77 1078.75 1104.93C1078.74 1104.92 1078.73 1104.91 1078.73 1104.9Z" fill="url(#paint2_linear_474_253)"/>
<path d="M-4.83676 999.397C-49.3094 988.699 -117.884 972.341 -170.687 934.029L-173.19 932.189L-181.616 925.9C-202.573 910.197 -233.914 885.898 -256.572 858.773L-257.799 857.291L-260.645 853.819C-275.618 835.501 -304.424 799.03 -321.911 751.615L-324.237 745.216C-332.34 723.099 -352.813 668.067 -352.418 603.461C-352.082 548.287 -343.297 494.911 -329.602 447.145C-302.991 354.33 -206.186 300.653 -113.382 327.253C-20.5772 353.854 33.0839 450.659 6.47283 543.475C0.833575 563.144 -2.46664 584.049 -2.78214 603.626C-2.68077 604.095 -2.52465 604.775 -2.28366 605.686C-1.7272 607.791 -0.854922 610.695 0.607366 615.016C1.66578 618.144 2.70027 621.054 4.01898 624.735C4.45991 625.337 4.99144 626.052 5.63104 626.888C6.54098 628.078 7.56606 629.387 8.75803 630.877C9.14578 631.207 9.59319 631.584 10.1054 632.01C14.2481 635.454 19.9704 639.935 28.0805 646.063C28.2176 646.111 28.3583 646.161 28.5031 646.211C37.4075 649.298 52.058 653.452 76.9732 659.446C93.0489 663.313 117.842 666.606 141.898 668.121C157.067 669.077 167.573 668.298 174.249 667.391C177.32 666.973 179.95 666.477 182.244 665.952C184.645 664.499 187.948 662.412 192.241 659.541C204.624 651.256 220.284 639.785 239.188 625.245C239.968 623.975 240.837 622.563 241.734 621.133C243.842 617.771 246.517 613.609 249.687 608.998C266.83 584.066 301.284 534.936 349.461 501.935C435.173 443.224 526.787 444.546 591.419 451.784C637.713 456.969 677.232 474.798 701.634 487.002C727.969 500.173 754.854 516.379 776.291 529.302C835.557 565.032 876.77 605.924 903.059 635.231C959.771 698.456 955.883 773.983 954.532 795.581C953.312 815.072 950.019 834.981 946.885 851.19C957.596 852.881 968.268 854.397 978.091 855.573C997.142 857.855 1008.61 857.334 1014.89 856.691C1020.96 856.068 1025.9 854.998 1034.87 852.516C1045.96 849.445 1053.32 846.63 1057.69 844.721C1110.4 790.394 1179.51 788.63 1215.4 795.143C1249.38 801.31 1273.26 815.982 1281.24 821.012C1300.75 833.313 1315.94 847.777 1323.9 855.605C1342.69 874.088 1364.67 899.514 1389.46 930.285C1426.33 976.06 1472.67 1046.07 1492.43 1075.06C1502.21 1089.4 1515.51 1108.75 1525.61 1128.58C1539.54 1155.95 1545.09 1178.9 1548.49 1194.24C1551.68 1208.64 1554.66 1223.74 1557.26 1239.1C1592.53 1250.24 1624.56 1272.62 1647.47 1305.21C1702.64 1383.69 1684.21 1491.86 1606.49 1547.71C1593.27 1559.93 1561.99 1587.88 1524.21 1610.65L1500.28 1625.07L1473.05 1631.31C1464.64 1633.24 1424.42 1643.84 1388.45 1645.98C1358.29 1647.77 1247.7 1648.67 1187.98 1543.6L1186.57 1541.1L1185.57 1539.25C1175.27 1520.05 1167.19 1496.52 1165.02 1469.55C1162.77 1441.68 1167.34 1416.57 1174.7 1395.85C1187.18 1360.73 1207.74 1338.49 1214.98 1331.04C1215.02 1330.97 1215.07 1330.91 1215.12 1330.84C1215.65 1330.07 1216.17 1329.29 1216.66 1328.54C1216.53 1327.12 1216.39 1325.58 1216.21 1323.94C1214.99 1312.25 1212.79 1297.42 1209.43 1280.72C1207.77 1278.25 1205.84 1275.4 1203.55 1272.03C1185.79 1245.99 1163.89 1213.2 1143.67 1184.95C1138.56 1186.51 1133.37 1188.03 1128.1 1189.49C1086.27 1201.07 1026.84 1213.56 936.468 1202.74C892.635 1197.49 830.849 1186.93 788.003 1175.28C739.645 1162.14 688.576 1145.6 639.915 1113.21C636.021 1110.62 595.05 1085.71 570.077 1036.71C536.304 970.451 550.513 906.863 568.307 868.623C573.395 857.69 578.739 846.943 582.874 838.6C585.41 833.486 587.59 829.067 589.553 825.022C569.475 812.96 556.049 805.143 545.228 799.732C544.62 799.428 544.05 799.149 543.52 798.891C541.771 801.325 539.852 804.044 537.764 807.081C545.459 795.89 513.22 855.119 461.044 895.638L456.43 899.212C433.299 917.09 409.269 934.99 386.599 950.156C366.397 963.67 332.68 985.186 295.483 997.107C254.42 1010.27 197.216 1021.95 119.874 1017.08C84.2319 1014.83 37.7474 1009.64 -4.83676 999.397ZM1322.33 1072.1C1322.77 1071.51 1323.21 1070.91 1323.65 1070.32C1323.21 1070.91 1322.77 1071.51 1322.33 1072.1ZM1078.73 1104.9C1077.4 1103.6 1077.46 1103.77 1078.75 1104.93C1078.74 1104.92 1078.73 1104.91 1078.73 1104.9Z" stroke="url(#paint3_linear_474_253)" stroke-width="100" stroke-linecap="round"/>
</g>
<g filter="url(#filter2_f_474_253)" style="mix-blend-mode:hue">
<path d="M-193.734 247.018C-251.059 236.249 -339.442 219.821 -409.149 174.42L-412.454 172.238L-423.59 164.77C-451.287 146.117 -492.763 117.183 -523.36 84.0945L-525.018 82.2853L-528.865 78.0464C-549.111 55.6794 -588.138 11.0825 -613.454 -48.1789L-616.826 -56.1787C-628.566 -83.8263 -658.174 -152.596 -661.821 -234.899C-664.935 -305.187 -657.176 -373.728 -642.802 -435.439C-614.873 -555.352 -495.035 -629.929 -375.137 -602.013C-255.238 -574.096 -180.682 -454.257 -208.611 -334.343C-214.53 -308.932 -217.39 -282.096 -216.535 -257.144C-216.375 -256.554 -216.133 -255.698 -215.768 -254.552C-214.924 -251.908 -213.626 -248.265 -211.487 -242.856C-209.938 -238.941 -208.433 -235.301 -206.517 -230.697C-205.917 -229.959 -205.194 -229.083 -204.326 -228.059C-203.091 -226.603 -201.701 -225.001 -200.088 -223.18C-199.573 -222.785 -198.979 -222.333 -198.299 -221.824C-192.802 -217.704 -185.227 -212.365 -174.504 -205.081C-174.327 -205.028 -174.144 -204.974 -173.957 -204.92C-162.418 -201.561 -143.494 -197.211 -111.378 -191.178C-90.6569 -187.285 -58.8702 -184.683 -28.1375 -184.298C-8.75704 -184.056 4.57235 -185.722 13.0161 -187.306C16.9012 -188.035 20.2178 -188.836 23.1059 -189.653C26.0711 -191.656 30.1433 -194.527 35.4255 -198.46C50.6643 -209.805 69.8714 -225.42 93.0127 -245.152C93.9238 -246.819 94.9401 -248.672 95.9902 -250.551C98.4596 -254.968 101.598 -260.44 105.34 -266.516C125.571 -299.37 166.295 -364.152 225.53 -409.273C330.917 -489.549 447.676 -493.749 530.453 -488.681C589.742 -485.051 641.217 -464.883 673.078 -450.908C707.462 -435.826 742.741 -416.914 770.872 -401.832C848.645 -360.135 903.757 -310.704 939.119 -275.068C1015.4 -198.191 1015.3 -101.755 1014.97 -74.1621C1014.67 -49.2622 1011.75 -23.6951 1008.8 -2.85196C1022.55 -1.38568 1036.24 -0.140824 1048.83 0.726704C1073.23 2.40929 1087.8 1.00961 1095.76 -0.213409C1103.46 -1.3966 1109.68 -3.07586 1120.94 -6.81292C1134.87 -11.4358 1144.06 -15.4945 1149.5 -18.2058C1213.14 -90.7794 1301.05 -97.4639 1347.17 -91.4736C1390.84 -85.8029 1422.2 -68.6501 1432.68 -62.7567C1458.32 -48.3439 1478.59 -30.8991 1489.23 -21.4406C1514.35 0.890355 1543.97 31.8603 1577.51 69.4559C1627.41 125.385 1690.93 211.564 1717.96 247.219C1731.33 264.857 1749.51 288.642 1763.64 313.25C1783.15 347.208 1791.69 376.085 1797 395.397C1801.99 413.535 1806.76 432.579 1811.05 451.963C1856.68 463.887 1898.91 490.329 1930.19 530.37C2005.48 626.775 1988.96 765.711 1893.56 841.836C1877.51 858.24 1839.47 895.85 1792.82 927.271L1763.27 947.173L1728.99 956.875C1718.41 959.872 1667.87 975.948 1622.2 980.982C1583.9 985.204 1443.12 993.455 1360.31 863.475L1358.36 860.378L1356.97 858.094C1342.62 834.306 1330.82 804.851 1326.32 770.648C1321.66 735.302 1325.87 703.025 1333.91 676.17C1347.56 630.64 1372.3 600.995 1381.04 591.043C1381.1 590.953 1381.16 590.864 1381.21 590.772C1381.84 589.754 1382.45 588.74 1383.02 587.745C1382.77 585.945 1382.49 584.001 1382.16 581.916C1379.86 567.112 1376.1 548.361 1370.75 527.315C1368.48 524.272 1365.84 520.766 1362.7 516.625C1338.41 484.594 1308.41 444.24 1280.85 409.562C1274.44 411.888 1267.93 414.151 1261.31 416.349C1208.78 433.783 1133.9 453.51 1018.11 445.528C961.953 441.657 882.588 432.176 827.274 420.096C764.844 406.462 698.744 388.678 634.692 350.56C629.566 347.51 575.789 318.414 540.838 257.62C493.571 175.401 507.583 93.5062 527.789 43.6631C533.566 29.4129 539.682 15.3831 544.412 4.49261C547.312 -2.18383 549.806 -7.95127 552.045 -13.2284C525.702 -27.3003 508.1 -36.3933 493.971 -42.5905C493.178 -42.9385 492.435 -43.2563 491.743 -43.5511C489.671 -40.3393 487.403 -36.7533 484.939 -32.7514C494.019 -47.4975 456.766 30.0032 392.92 84.9568L387.273 89.8049C358.963 114.058 329.51 138.398 301.613 159.168C276.752 177.677 235.194 207.244 188.588 224.814C137.138 244.211 65.0367 262.762 -33.775 261.525C-79.3104 260.955 -138.844 257.329 -193.734 247.018ZM1501.14 254.377C1501.66 253.594 1502.18 252.808 1502.7 252.017C1502.18 252.806 1501.66 253.591 1501.14 254.377ZM1193 311.797C1191.22 310.218 1191.31 310.43 1193.03 311.822C1193.02 311.814 1193.01 311.805 1193 311.797Z" fill="url(#paint4_linear_474_253)"/>
<path d="M-193.734 247.018C-251.059 236.249 -339.442 219.821 -409.149 174.42L-412.454 172.238L-423.59 164.77C-451.287 146.117 -492.763 117.183 -523.36 84.0945L-525.018 82.2853L-528.865 78.0464C-549.111 55.6794 -588.138 11.0825 -613.454 -48.1789L-616.826 -56.1787C-628.566 -83.8263 -658.174 -152.596 -661.821 -234.899C-664.935 -305.187 -657.176 -373.728 -642.802 -435.439C-614.873 -555.352 -495.035 -629.929 -375.137 -602.013C-255.238 -574.096 -180.682 -454.257 -208.611 -334.343C-214.53 -308.932 -217.39 -282.096 -216.535 -257.144C-216.375 -256.554 -216.133 -255.698 -215.768 -254.552C-214.924 -251.908 -213.626 -248.265 -211.487 -242.856C-209.938 -238.941 -208.433 -235.301 -206.517 -230.697C-205.917 -229.959 -205.194 -229.083 -204.326 -228.059C-203.091 -226.603 -201.701 -225.001 -200.088 -223.18C-199.573 -222.785 -198.979 -222.333 -198.299 -221.824C-192.802 -217.704 -185.227 -212.365 -174.504 -205.081C-174.327 -205.028 -174.144 -204.974 -173.957 -204.92C-162.418 -201.561 -143.494 -197.211 -111.378 -191.178C-90.6569 -187.285 -58.8702 -184.683 -28.1375 -184.298C-8.75704 -184.056 4.57235 -185.722 13.0161 -187.306C16.9012 -188.035 20.2178 -188.836 23.1059 -189.653C26.0711 -191.656 30.1433 -194.527 35.4255 -198.46C50.6643 -209.805 69.8714 -225.42 93.0127 -245.152C93.9238 -246.819 94.9401 -248.672 95.9902 -250.551C98.4596 -254.968 101.598 -260.44 105.34 -266.516C125.571 -299.37 166.295 -364.152 225.53 -409.273C330.917 -489.549 447.676 -493.749 530.453 -488.681C589.742 -485.051 641.217 -464.883 673.078 -450.908C707.462 -435.826 742.741 -416.914 770.872 -401.832C848.645 -360.135 903.757 -310.704 939.119 -275.068C1015.4 -198.191 1015.3 -101.755 1014.97 -74.1621C1014.67 -49.2622 1011.75 -23.6951 1008.8 -2.85196C1022.55 -1.38568 1036.24 -0.140824 1048.83 0.726704C1073.23 2.40929 1087.8 1.00961 1095.76 -0.213409C1103.46 -1.3966 1109.68 -3.07586 1120.94 -6.81292C1134.87 -11.4358 1144.06 -15.4945 1149.5 -18.2058C1213.14 -90.7794 1301.05 -97.4639 1347.17 -91.4736C1390.84 -85.8029 1422.2 -68.6501 1432.68 -62.7567C1458.32 -48.3439 1478.59 -30.8991 1489.23 -21.4406C1514.35 0.890355 1543.97 31.8603 1577.51 69.4559C1627.41 125.385 1690.93 211.564 1717.96 247.219C1731.33 264.857 1749.51 288.642 1763.64 313.25C1783.15 347.208 1791.69 376.085 1797 395.397C1801.99 413.535 1806.76 432.579 1811.05 451.963C1856.68 463.887 1898.91 490.329 1930.19 530.37C2005.48 626.775 1988.96 765.711 1893.56 841.836C1877.51 858.24 1839.47 895.85 1792.82 927.271L1763.27 947.173L1728.99 956.875C1718.41 959.872 1667.87 975.948 1622.2 980.982C1583.9 985.204 1443.12 993.455 1360.31 863.475L1358.36 860.378L1356.97 858.094C1342.62 834.306 1330.82 804.851 1326.32 770.648C1321.66 735.302 1325.87 703.025 1333.91 676.17C1347.56 630.64 1372.3 600.995 1381.04 591.043C1381.1 590.953 1381.16 590.864 1381.21 590.772C1381.84 589.754 1382.45 588.74 1383.02 587.745C1382.77 585.945 1382.49 584.001 1382.16 581.916C1379.86 567.112 1376.1 548.361 1370.75 527.315C1368.48 524.272 1365.84 520.766 1362.7 516.625C1338.41 484.594 1308.41 444.24 1280.85 409.562C1274.44 411.888 1267.93 414.151 1261.31 416.349C1208.78 433.783 1133.9 453.51 1018.11 445.528C961.953 441.657 882.588 432.176 827.274 420.096C764.844 406.462 698.744 388.678 634.692 350.56C629.566 347.51 575.789 318.414 540.838 257.62C493.571 175.401 507.583 93.5062 527.789 43.6631C533.566 29.4129 539.682 15.3831 544.412 4.49261C547.312 -2.18383 549.806 -7.95127 552.045 -13.2284C525.702 -27.3003 508.1 -36.3933 493.971 -42.5905C493.178 -42.9385 492.435 -43.2563 491.743 -43.5511C489.671 -40.3393 487.403 -36.7533 484.939 -32.7514C494.019 -47.4975 456.766 30.0032 392.92 84.9568L387.273 89.8049C358.963 114.058 329.51 138.398 301.613 159.168C276.752 177.677 235.194 207.244 188.588 224.814C137.138 244.211 65.0367 262.762 -33.775 261.525C-79.3104 260.955 -138.844 257.329 -193.734 247.018ZM1501.14 254.377C1501.66 253.594 1502.18 252.808 1502.7 252.017C1502.18 252.806 1501.66 253.591 1501.14 254.377ZM1193 311.797C1191.22 310.218 1191.31 310.43 1193.03 311.822C1193.02 311.814 1193.01 311.805 1193 311.797Z" stroke="url(#paint5_linear_474_253)" stroke-width="38" stroke-linecap="round"/>
</g>
<rect x="-3" y="-44" width="1451" height="204" fill="url(#paint6_linear_474_253)"/>
<rect x="1447.93" y="1422.99" width="1451" height="199" transform="rotate(180 1447.93 1422.99)" fill="url(#paint7_linear_474_253)"/>
</g>
<defs>
<filter id="filter0_n_474_253" x="-4" y="-37" width="1440" height="1470" filterUnits="userSpaceOnUse" color-interpolation-filters="sRGB">
<feFlood flood-opacity="0" result="BackgroundImageFix"/>
<feBlend mode="normal" in="SourceGraphic" in2="BackgroundImageFix" result="shape"/>
<feTurbulence type="fractalNoise" baseFrequency="0.40000000596046448 0.40000000596046448" stitchTiles="stitch" numOctaves="3" result="noise" seed="6525" />
<feColorMatrix in="noise" type="luminanceToAlpha" result="alphaNoise" />
<feComponentTransfer in="alphaNoise" result="coloredNoise1">
<feFuncA type="discrete" tableValues="1 1 1 1 1 1 1 1 1 1 1 1 1 1 1 1 1 1 1 1 1 1 1 1 1 1 1 1 1 1 1 1 1 1 1 1 1 1 1 1 1 1 1 1 1 1 1 1 1 1 1 0 0 0 0 0 0 0 0 0 0 0 0 0 0 0 0 0 0 0 0 0 0 0 0 0 0 0 0 0 0 0 0 0 0 0 0 0 0 0 0 0 0 0 0 0 0 0 0 0 "/>
</feComponentTransfer>
<feComposite operator="in" in2="shape" in="coloredNoise1" result="noise1Clipped" />
<feFlood flood-color="rgba(0, 0, 0, 0.7)" result="color1Flood" />
<feComposite operator="in" in2="noise1Clipped" in="color1Flood" result="color1" />
<feMerge result="effect1_noise_474_253">
<feMergeNode in="shape" />
<feMergeNode in="color1" />
</feMerge>
</filter>
<filter id="filter1_f_474_253" x="-502.424" y="170.429" width="2331.71" height="1625.96" filterUnits="userSpaceOnUse" color-interpolation-filters="sRGB">
<feFlood flood-opacity="0" result="BackgroundImageFix"/>
<feBlend mode="normal" in="SourceGraphic" in2="BackgroundImageFix" result="shape"/>
<feGaussianBlur stdDeviation="50" result="effect1_foregroundBlur_474_253"/>
</filter>
<filter id="filter2_f_474_253" x="-781.503" y="-726.874" width="2877.93" height="1828.72" filterUnits="userSpaceOnUse" color-interpolation-filters="sRGB">
<feFlood flood-opacity="0" result="BackgroundImageFix"/>
<feBlend mode="normal" in="SourceGraphic" in2="BackgroundImageFix" result="shape"/>
<feGaussianBlur stdDeviation="50" result="effect1_foregroundBlur_474_253"/>
</filter>
<linearGradient id="paint0_linear_474_253" x1="716" y1="-37" x2="716" y2="1433" gradientUnits="userSpaceOnUse">
<stop stop-color="#F6F6F6"/>
<stop offset="0.259615" stop-color="#9BE09D"/>
<stop offset="0.740385" stop-color="#9BE09D"/>
<stop offset="0.971154" stop-color="#F6F6F6"/>
</linearGradient>
<linearGradient id="paint1_linear_474_253" x1="716" y1="-37" x2="716" y2="1433" gradientUnits="userSpaceOnUse">
<stop stop-color="#F6F6F6"/>
<stop offset="1" stop-color="#58CE7A"/>
</linearGradient>
<linearGradient id="paint2_linear_474_253" x1="1538.65" y1="1232.32" x2="-206.617" y2="592.859" gradientUnits="userSpaceOnUse">
<stop stop-color="#09BCDC"/>
<stop offset="1" stop-color="#5AC057"/>
</linearGradient>
<linearGradient id="paint3_linear_474_253" x1="472.325" y1="1301.08" x2="878.328" y2="586.344" gradientUnits="userSpaceOnUse">
<stop stop-color="#CDF24B"/>
<stop offset="1" stop-color="#4AB959"/>
</linearGradient>
<linearGradient id="paint4_linear_474_253" x1="1786.92" y1="444.534" x2="-476.818" y2="-257.766" gradientUnits="userSpaceOnUse">
<stop stop-color="#4BB959"/>
<stop offset="1" stop-color="#C4EF4C"/>
</linearGradient>
<linearGradient id="paint5_linear_474_253" x1="433.324" y1="600.576" x2="904.484" y2="-335.74" gradientUnits="userSpaceOnUse">
<stop stop-color="#08BCDE"/>
<stop offset="1" stop-color="#53C355"/>
</linearGradient>
<linearGradient id="paint6_linear_474_253" x1="722.5" y1="-44" x2="722.5" y2="160" gradientUnits="userSpaceOnUse">
<stop stop-color="#F6F6F6"/>
<stop offset="1" stop-color="#F6F6F6" stop-opacity="0"/>
</linearGradient>
<linearGradient id="paint7_linear_474_253" x1="2173.43" y1="1422.99" x2="2173.43" y2="1621.99" gradientUnits="userSpaceOnUse">
<stop stop-color="#F6F6F6"/>
<stop offset="1" stop-color="#F6F6F6" stop-opacity="0"/>
</linearGradient>
<clipPath id="clip0_474_253">
<rect width="1436" height="1433" fill="white"/>
</clipPath>
</defs>
</svg>
