<svg width="276" height="60" viewBox="0 0 276 60" fill="none" xmlns="http://www.w3.org/2000/svg">
<rect width="276" height="60" rx="30" fill="#222222"/>
<path d="M27.4 38V23.6H36.5V25.29H29.18V29.8H35.3V31.49H29.18V36.31H36.5V38H27.4ZM41.8239 38L37.9039 27.2H39.7039L42.7339 35.73L45.7539 27.2H47.5639L43.6439 38H41.8239ZM51.8372 38.3C51.0305 38.3 50.3539 38.1533 49.8072 37.86C49.2672 37.56 48.8572 37.1667 48.5772 36.68C48.3039 36.1933 48.1672 35.66 48.1672 35.08C48.1672 34.5133 48.2739 34.0233 48.4872 33.61C48.7072 33.19 49.0139 32.8433 49.4072 32.57C49.8005 32.29 50.2705 32.07 50.8172 31.91C51.3305 31.77 51.9039 31.65 52.5372 31.55C53.1772 31.4433 53.8239 31.3467 54.4772 31.26C55.1305 31.1733 55.7405 31.09 56.3072 31.01L55.6672 31.38C55.6872 30.42 55.4939 29.71 55.0872 29.25C54.6872 28.79 53.9939 28.56 53.0072 28.56C52.3539 28.56 51.7805 28.71 51.2872 29.01C50.8005 29.3033 50.4572 29.7833 50.2572 30.45L48.5672 29.94C48.8272 28.9933 49.3305 28.25 50.0772 27.71C50.8239 27.17 51.8072 26.9 53.0272 26.9C54.0072 26.9 54.8472 27.0767 55.5472 27.43C56.2539 27.7767 56.7605 28.3033 57.0672 29.01C57.2205 29.3433 57.3172 29.7067 57.3572 30.1C57.3972 30.4867 57.4172 30.8933 57.4172 31.32V38H55.8372V35.41L56.2072 35.65C55.8005 36.5233 55.2305 37.1833 54.4972 37.63C53.7705 38.0767 52.8839 38.3 51.8372 38.3ZM52.1072 36.81C52.7472 36.81 53.3005 36.6967 53.7672 36.47C54.2405 36.2367 54.6205 35.9333 54.9072 35.56C55.1939 35.18 55.3805 34.7667 55.4672 34.32C55.5672 33.9867 55.6205 33.6167 55.6272 33.21C55.6405 32.7967 55.6472 32.48 55.6472 32.26L56.2672 32.53C55.6872 32.61 55.1172 32.6867 54.5572 32.76C53.9972 32.8333 53.4672 32.9133 52.9672 33C52.4672 33.08 52.0172 33.1767 51.6172 33.29C51.3239 33.3833 51.0472 33.5033 50.7872 33.65C50.5339 33.7967 50.3272 33.9867 50.1672 34.22C50.0139 34.4467 49.9372 34.73 49.9372 35.07C49.9372 35.3633 50.0105 35.6433 50.1572 35.91C50.3105 36.1767 50.5439 36.3933 50.8572 36.56C51.1772 36.7267 51.5939 36.81 52.1072 36.81ZM60.2172 38V23.3H61.9972V38H60.2172ZM69.0977 38.28C68.4043 38.28 67.8077 38.17 67.3077 37.95C66.8143 37.73 66.4043 37.4367 66.0777 37.07C65.751 36.7033 65.4943 36.2967 65.3077 35.85C65.121 35.4033 64.9877 34.9467 64.9077 34.48C64.8343 34.0133 64.7977 33.5767 64.7977 33.17V27.2H66.5977V32.61C66.5977 33.1167 66.6443 33.6067 66.7377 34.08C66.831 34.5533 66.9877 34.98 67.2077 35.36C67.4343 35.74 67.7343 36.04 68.1077 36.26C68.4877 36.48 68.961 36.59 69.5277 36.59C69.9743 36.59 70.381 36.5133 70.7477 36.36C71.1143 36.2067 71.4277 35.98 71.6877 35.68C71.9477 35.3733 72.1477 34.9867 72.2877 34.52C72.4277 34.0533 72.4977 33.51 72.4977 32.89L73.6677 33.25C73.6677 34.29 73.4777 35.1867 73.0977 35.94C72.7243 36.6933 72.1943 37.2733 71.5077 37.68C70.8277 38.08 70.0243 38.28 69.0977 38.28ZM72.6977 38V35.11H72.4977V27.2H74.2877V38H72.6977ZM80.1575 38.3C79.3508 38.3 78.6742 38.1533 78.1275 37.86C77.5875 37.56 77.1775 37.1667 76.8975 36.68C76.6242 36.1933 76.4875 35.66 76.4875 35.08C76.4875 34.5133 76.5942 34.0233 76.8075 33.61C77.0275 33.19 77.3342 32.8433 77.7275 32.57C78.1208 32.29 78.5908 32.07 79.1375 31.91C79.6508 31.77 80.2242 31.65 80.8575 31.55C81.4975 31.4433 82.1442 31.3467 82.7975 31.26C83.4508 31.1733 84.0608 31.09 84.6275 31.01L83.9875 31.38C84.0075 30.42 83.8142 29.71 83.4075 29.25C83.0075 28.79 82.3142 28.56 81.3275 28.56C80.6742 28.56 80.1008 28.71 79.6075 29.01C79.1208 29.3033 78.7775 29.7833 78.5775 30.45L76.8875 29.94C77.1475 28.9933 77.6508 28.25 78.3975 27.71C79.1442 27.17 80.1275 26.9 81.3475 26.9C82.3275 26.9 83.1675 27.0767 83.8675 27.43C84.5742 27.7767 85.0808 28.3033 85.3875 29.01C85.5408 29.3433 85.6375 29.7067 85.6775 30.1C85.7175 30.4867 85.7375 30.8933 85.7375 31.32V38H84.1575V35.41L84.5275 35.65C84.1208 36.5233 83.5508 37.1833 82.8175 37.63C82.0908 38.0767 81.2042 38.3 80.1575 38.3ZM80.4275 36.81C81.0675 36.81 81.6208 36.6967 82.0875 36.47C82.5608 36.2367 82.9408 35.9333 83.2275 35.56C83.5142 35.18 83.7008 34.7667 83.7875 34.32C83.8875 33.9867 83.9408 33.6167 83.9475 33.21C83.9608 32.7967 83.9675 32.48 83.9675 32.26L84.5875 32.53C84.0075 32.61 83.4375 32.6867 82.8775 32.76C82.3175 32.8333 81.7875 32.9133 81.2875 33C80.7875 33.08 80.3375 33.1767 79.9375 33.29C79.6442 33.3833 79.3675 33.5033 79.1075 33.65C78.8542 33.7967 78.6475 33.9867 78.4875 34.22C78.3342 34.4467 78.2575 34.73 78.2575 35.07C78.2575 35.3633 78.3308 35.6433 78.4775 35.91C78.6308 36.1767 78.8642 36.3933 79.1775 36.56C79.4975 36.7267 79.9142 36.81 80.4275 36.81ZM94.3675 38C93.7275 38.1267 93.0942 38.1767 92.4675 38.15C91.8475 38.13 91.2942 38.0067 90.8075 37.78C90.3208 37.5467 89.9508 37.1867 89.6975 36.7C89.4842 36.2733 89.3675 35.8433 89.3475 35.41C89.3342 34.97 89.3275 34.4733 89.3275 33.92V24.2H91.1075V33.84C91.1075 34.28 91.1108 34.6567 91.1175 34.97C91.1308 35.2833 91.2008 35.5533 91.3275 35.78C91.5675 36.2067 91.9475 36.4567 92.4675 36.53C92.9942 36.6033 93.6275 36.5833 94.3675 36.47V38ZM87.1375 28.67V27.2H94.3675V28.67H87.1375ZM100.791 38.3C99.7309 38.3 98.8043 38.0667 98.0109 37.6C97.2243 37.1267 96.6109 36.47 96.1709 35.63C95.7309 34.7833 95.5109 33.7967 95.5109 32.67C95.5109 31.49 95.7276 30.47 96.1609 29.61C96.5943 28.7433 97.1976 28.0767 97.9709 27.61C98.7509 27.1367 99.6643 26.9 100.711 26.9C101.798 26.9 102.721 27.15 103.481 27.65C104.248 28.15 104.821 28.8633 105.201 29.79C105.588 30.7167 105.754 31.82 105.701 33.1H103.901V32.46C103.881 31.1333 103.611 30.1433 103.091 29.49C102.571 28.83 101.798 28.5 100.771 28.5C99.6709 28.5 98.8343 28.8533 98.2609 29.56C97.6876 30.2667 97.4009 31.28 97.4009 32.6C97.4009 33.8733 97.6876 34.86 98.2609 35.56C98.8343 36.26 99.6509 36.61 100.711 36.61C101.424 36.61 102.044 36.4467 102.571 36.12C103.098 35.7933 103.511 35.3233 103.811 34.71L105.521 35.3C105.101 36.2533 104.468 36.9933 103.621 37.52C102.781 38.04 101.838 38.3 100.791 38.3ZM96.8009 33.1V31.67H104.781V33.1H96.8009ZM110.931 38L115.751 23.6H118.231L123.051 38H121.201L116.691 24.64H117.251L112.781 38H110.931ZM113.251 34.63V32.96H120.731V34.63H113.251ZM125.041 38V23.6H126.821V38H125.041ZM134.026 38V23.6H135.806V36.31H142.486V38H134.026ZM147.247 38.3C146.441 38.3 145.764 38.1533 145.217 37.86C144.677 37.56 144.267 37.1667 143.987 36.68C143.714 36.1933 143.577 35.66 143.577 35.08C143.577 34.5133 143.684 34.0233 143.897 33.61C144.117 33.19 144.424 32.8433 144.817 32.57C145.211 32.29 145.681 32.07 146.227 31.91C146.741 31.77 147.314 31.65 147.947 31.55C148.587 31.4433 149.234 31.3467 149.887 31.26C150.541 31.1733 151.151 31.09 151.717 31.01L151.077 31.38C151.097 30.42 150.904 29.71 150.497 29.25C150.097 28.79 149.404 28.56 148.417 28.56C147.764 28.56 147.191 28.71 146.697 29.01C146.211 29.3033 145.867 29.7833 145.667 30.45L143.977 29.94C144.237 28.9933 144.741 28.25 145.487 27.71C146.234 27.17 147.217 26.9 148.437 26.9C149.417 26.9 150.257 27.0767 150.957 27.43C151.664 27.7767 152.171 28.3033 152.477 29.01C152.631 29.3433 152.727 29.7067 152.767 30.1C152.807 30.4867 152.827 30.8933 152.827 31.32V38H151.247V35.41L151.617 35.65C151.211 36.5233 150.641 37.1833 149.907 37.63C149.181 38.0767 148.294 38.3 147.247 38.3ZM147.517 36.81C148.157 36.81 148.711 36.6967 149.177 36.47C149.651 36.2367 150.031 35.9333 150.317 35.56C150.604 35.18 150.791 34.7667 150.877 34.32C150.977 33.9867 151.031 33.6167 151.037 33.21C151.051 32.7967 151.057 32.48 151.057 32.26L151.677 32.53C151.097 32.61 150.527 32.6867 149.967 32.76C149.407 32.8333 148.877 32.9133 148.377 33C147.877 33.08 147.427 33.1767 147.027 33.29C146.734 33.3833 146.457 33.5033 146.197 33.65C145.944 33.7967 145.737 33.9867 145.577 34.22C145.424 34.4467 145.347 34.73 145.347 35.07C145.347 35.3633 145.421 35.6433 145.567 35.91C145.721 36.1767 145.954 36.3933 146.267 36.56C146.587 36.7267 147.004 36.81 147.517 36.81ZM160.387 38.3C159.374 38.3 158.521 38.05 157.827 37.55C157.134 37.0433 156.607 36.36 156.247 35.5C155.894 34.6333 155.717 33.6633 155.717 32.59C155.717 31.5033 155.894 30.53 156.247 29.67C156.607 28.81 157.134 28.1333 157.827 27.64C158.527 27.1467 159.384 26.9 160.397 26.9C161.397 26.9 162.257 27.15 162.977 27.65C163.704 28.1433 164.261 28.82 164.647 29.68C165.034 30.54 165.227 31.51 165.227 32.59C165.227 33.67 165.034 34.64 164.647 35.5C164.261 36.36 163.704 37.0433 162.977 37.55C162.257 38.05 161.394 38.3 160.387 38.3ZM155.417 38V23.6H157.207V30.05H157.007V38H155.417ZM160.167 36.67C160.881 36.67 161.471 36.49 161.937 36.13C162.404 35.77 162.754 35.2833 162.987 34.67C163.221 34.05 163.337 33.3567 163.337 32.59C163.337 31.83 163.221 31.1433 162.987 30.53C162.761 29.9167 162.407 29.43 161.927 29.07C161.454 28.71 160.851 28.53 160.117 28.53C159.417 28.53 158.837 28.7033 158.377 29.05C157.917 29.39 157.574 29.8667 157.347 30.48C157.121 31.0867 157.007 31.79 157.007 32.59C157.007 33.3767 157.117 34.08 157.337 34.7C157.564 35.3133 157.911 35.7967 158.377 36.15C158.844 36.4967 159.441 36.67 160.167 36.67ZM172.02 38.3C170.946 38.3 170.02 38.0567 169.24 37.57C168.466 37.0833 167.87 36.41 167.45 35.55C167.03 34.69 166.82 33.7033 166.82 32.59C166.82 31.4567 167.033 30.4633 167.46 29.61C167.886 28.7567 168.49 28.0933 169.27 27.62C170.05 27.14 170.966 26.9 172.02 26.9C173.1 26.9 174.03 27.1433 174.81 27.63C175.59 28.11 176.186 28.78 176.6 29.64C177.02 30.4933 177.23 31.4767 177.23 32.59C177.23 33.7167 177.02 34.71 176.6 35.57C176.18 36.4233 175.58 37.0933 174.8 37.58C174.02 38.06 173.093 38.3 172.02 38.3ZM172.02 36.61C173.14 36.61 173.973 36.2367 174.52 35.49C175.066 34.7433 175.34 33.7767 175.34 32.59C175.34 31.37 175.063 30.4 174.51 29.68C173.956 28.9533 173.126 28.59 172.02 28.59C171.266 28.59 170.646 28.76 170.16 29.1C169.673 29.44 169.31 29.91 169.07 30.51C168.83 31.11 168.71 31.8033 168.71 32.59C168.71 33.8033 168.99 34.7767 169.55 35.51C170.11 36.2433 170.933 36.61 172.02 36.61ZM183.531 38.28C182.838 38.28 182.241 38.17 181.741 37.95C181.248 37.73 180.838 37.4367 180.511 37.07C180.185 36.7033 179.928 36.2967 179.741 35.85C179.555 35.4033 179.421 34.9467 179.341 34.48C179.268 34.0133 179.231 33.5767 179.231 33.17V27.2H181.031V32.61C181.031 33.1167 181.078 33.6067 181.171 34.08C181.265 34.5533 181.421 34.98 181.641 35.36C181.868 35.74 182.168 36.04 182.541 36.26C182.921 36.48 183.395 36.59 183.961 36.59C184.408 36.59 184.815 36.5133 185.181 36.36C185.548 36.2067 185.861 35.98 186.121 35.68C186.381 35.3733 186.581 34.9867 186.721 34.52C186.861 34.0533 186.931 33.51 186.931 32.89L188.101 33.25C188.101 34.29 187.911 35.1867 187.531 35.94C187.158 36.6933 186.628 37.2733 185.941 37.68C185.261 38.08 184.458 38.28 183.531 38.28ZM187.131 38V35.11H186.931V27.2H188.721V38H187.131ZM191.521 38V27.2H193.111V29.81L192.851 29.47C192.978 29.1367 193.141 28.83 193.341 28.55C193.548 28.27 193.778 28.04 194.031 27.86C194.311 27.6333 194.628 27.46 194.981 27.34C195.334 27.22 195.694 27.15 196.061 27.13C196.428 27.1033 196.771 27.1267 197.091 27.2V28.87C196.718 28.77 196.308 28.7433 195.861 28.79C195.414 28.8367 195.001 29 194.621 29.28C194.274 29.5267 194.004 29.8267 193.811 30.18C193.624 30.5333 193.494 30.9167 193.421 31.33C193.348 31.7367 193.311 32.1533 193.311 32.58V38H191.521Z" fill="#F6F6F6"/>
<rect x="216" y="8" width="44" height="44" rx="22" fill="#F6F6F6"/>
<path d="M233.575 22.875C233.326 22.875 233.088 22.9738 232.912 23.1496C232.736 23.3254 232.637 23.5639 232.637 23.8125C232.637 24.0611 232.736 24.2996 232.912 24.4754C233.088 24.6512 233.326 24.75 233.575 24.75H241.925L231.15 35.525C231.058 35.6108 230.984 35.7143 230.933 35.8293C230.881 35.9443 230.854 36.0685 230.852 36.1943C230.849 36.3202 230.873 36.4453 230.92 36.562C230.967 36.6787 231.037 36.7848 231.126 36.8738C231.215 36.9628 231.321 37.033 231.438 37.0802C231.555 37.1273 231.68 37.1505 231.806 37.1482C231.931 37.146 232.056 37.1185 232.171 37.0672C232.286 37.016 232.389 36.9421 232.475 36.85L243.25 26.075V34.425C243.25 34.6736 243.349 34.9121 243.525 35.0879C243.7 35.2637 243.939 35.3625 244.187 35.3625C244.436 35.3625 244.675 35.2637 244.85 35.0879C245.026 34.9121 245.125 34.6736 245.125 34.425V23.8125C245.123 23.6881 245.097 23.5651 245.05 23.45C244.982 23.2902 244.871 23.1521 244.73 23.0507C244.589 22.9493 244.423 22.8885 244.25 22.875H233.575Z" fill="#222222"/>
</svg>
