<svg width="83" height="83" viewBox="0 0 83 83" fill="none" xmlns="http://www.w3.org/2000/svg">
<path opacity="0.7" d="M41.3281 0C64.1527 0.000185545 82.6553 18.5035 82.6553 41.3281C82.6551 64.1526 64.1526 82.6551 41.3281 82.6553C18.5035 82.6553 0.000185569 64.1527 0 41.3281C0 18.5034 18.5034 0 41.3281 0ZM41.3262 26.8184C31.241 26.8186 23.0654 34.985 23.0654 45.0586C23.0656 55.132 31.2411 63.2986 41.3262 63.2988C51.4114 63.2988 59.5878 55.1322 59.5879 45.0586C59.5879 34.9849 51.4115 26.8184 41.3262 26.8184Z" fill="white"/>
<path d="M82.6556 41.3278C82.6556 52.2886 78.3014 62.8005 70.5509 70.5509C62.8005 78.3014 52.2886 82.6556 41.3278 82.6556C30.367 82.6556 19.8551 78.3014 12.1046 70.5509C4.35417 62.8005 1.65504e-06 52.2886 0 41.3278L41.3278 41.3278H82.6556Z" fill="white"/>
</svg>
