<svg width="103" height="105" viewBox="0 0 103 105" fill="none" xmlns="http://www.w3.org/2000/svg">
<path d="M28.6345 40.7895C32.676 33.2133 40.7363 28.0469 50.0203 28.0469C63.3572 28.0469 74.169 38.7085 74.169 51.8602C74.169 65.0119 63.3572 75.6734 50.0203 75.6734C40.9348 75.6734 33.0222 70.7252 28.9001 63.4131L28.9175 63.4437L7.86803 84.1995L17.4376 93.6362L34.699 76.6146L27.1562 99.5087L40.0262 103.632L47.5652 80.7528L51.3794 104.5L64.7458 102.412L60.9316 78.6733L75.2687 98.1305L86.216 90.2862L71.8715 70.818L93.6111 81.7406L99.755 69.8498L78.0229 58.931H102.41V45.5862H78.008L99.755 34.6599L93.6111 22.7692L71.8889 33.6832L86.221 14.2309L75.2724 6.38781L60.9205 25.8671L64.7409 2.08806L51.3744 0L47.5565 23.7729L40.0125 0.877571L27.1426 5.00107L34.6803 27.878L17.4389 10.8748L7.86927 20.3103L28.6345 40.7895ZM11.4427 45.5739H-2.09009V58.9187H11.4427V45.5739Z" fill="#D4D4D4"/>
</svg>
