<svg width="24" height="24" viewBox="0 0 24 24" fill="none" xmlns="http://www.w3.org/2000/svg">
<path fill-rule="evenodd" clip-rule="evenodd" d="M0.767562 0.566523C2.56421 -0.985967 7.12614 0.750048 11.999 4.57922C16.9697 0.673375 21.6163 -1.05335 23.3349 0.665156L23.4326 0.769648C24.9848 2.5665 23.249 7.1274 19.4199 12.0001C23.2494 16.8732 24.9851 21.4348 23.4326 23.2316L23.3349 23.3361C21.6162 25.0543 16.9696 23.3269 11.999 19.421C7.126 23.2504 2.56423 24.9863 0.767562 23.4337L0.664046 23.3361C-1.05447 21.6174 0.6722 16.9708 4.57811 12.0001C0.672393 7.0295 -1.05448 2.38271 0.664046 0.66418L0.767562 0.566523ZM5.22166 12.798C3.88553 14.5194 2.83012 16.1852 2.10643 17.6759C1.46421 18.9989 1.10835 20.1334 1.02049 21.0157C0.931781 21.9075 1.1268 22.3847 1.37108 22.629C1.6154 22.8732 2.09205 23.0672 2.98338 22.9786C3.86571 22.8908 5.00019 22.5359 6.32323 21.8937C7.81387 21.1701 9.47889 20.1135 11.2002 18.7775C10.1579 17.9151 9.10684 16.9615 8.07225 15.9269C7.03739 14.892 6.08417 13.8405 5.22166 12.798ZM18.7754 12.798C17.9129 13.8403 16.9605 14.8922 15.9258 15.9269C14.8909 16.9617 13.8393 17.9149 12.7969 18.7775C14.5184 20.1137 16.1839 21.1699 17.6748 21.8937C18.9978 22.5359 20.1323 22.8907 21.0146 22.9786C21.9061 23.0673 22.3836 22.8732 22.6279 22.629C22.8721 22.3847 23.0662 21.9074 22.9775 21.0157C22.8897 20.1334 22.5338 18.999 21.8916 17.6759C21.1678 16.185 20.1117 14.5195 18.7754 12.798ZM11.999 5.86145C10.9312 6.73582 9.84784 7.71183 8.77928 8.78039C7.71076 9.84892 6.7347 10.9323 5.86034 12.0001C6.73471 13.068 7.71073 14.1513 8.77928 15.2198C9.84757 16.2881 10.9304 17.2646 11.998 18.1388C13.0661 17.2643 14.15 16.2886 15.2187 15.2198C16.2871 14.1514 17.2624 13.0678 18.1367 12.0001C17.2626 10.9326 16.287 9.8496 15.2187 8.78137C14.1501 7.71273 13.067 6.73588 11.999 5.86145ZM12.1084 7.55969C14.4852 7.55986 16.4128 9.48659 16.4131 11.8634L16.4072 12.0851C16.292 14.3592 14.4111 16.1679 12.1084 16.1681L11.8877 16.1622C9.61335 16.0471 7.8047 14.1663 7.80467 11.8634C7.8049 9.48663 9.73161 7.55992 12.1084 7.55969ZM12.1084 8.55969C10.2839 8.55992 8.8049 10.0389 8.80467 11.8634C8.8047 13.6881 10.2838 15.1679 12.1084 15.1681C13.933 15.1679 15.413 13.6881 15.4131 11.8634C15.4128 10.0389 13.9329 8.55986 12.1084 8.55969ZM2.98338 1.0216C2.09244 0.93304 1.61548 1.12718 1.37108 1.37121C1.12677 1.61552 0.931748 2.09361 1.02049 2.98547C1.10838 3.86776 1.46431 5.00147 2.10643 6.32434C2.83007 7.81505 3.88557 9.48088 5.22166 11.2023C6.08416 10.1598 7.03743 9.10819 8.07225 8.07336C9.10692 7.0387 10.1579 6.08516 11.2002 5.22277C9.479 3.88689 7.81378 2.8311 6.32323 2.10754C5.00013 1.46531 3.86574 1.10941 2.98338 1.0216ZM21.0146 1.0216C20.1323 1.10951 18.9978 1.4653 17.6748 2.10754C16.184 2.83122 14.5183 3.88666 12.7969 5.22277C13.8394 6.08531 14.8909 7.03852 15.9258 8.07336C16.9604 9.10797 17.913 10.16 18.7754 11.2023C20.1117 9.48066 21.1678 7.81526 21.8916 6.32434C22.5338 5.00141 22.8896 3.86781 22.9775 2.98547C23.0662 2.09385 22.8721 1.61655 22.6279 1.37219C22.3836 1.12793 21.9063 0.932932 21.0146 1.0216Z" fill="black"/>
</svg>
