<svg width="24" height="22" viewBox="0 0 24 22" fill="none" xmlns="http://www.w3.org/2000/svg">
<path d="M11.7676 0C15.8212 9.43168e-05 19.1073 3.2862 19.1074 7.33984C19.1074 7.41075 19.1036 7.48134 19.1016 7.55176C21.9538 8.55857 23.998 11.2768 23.998 14.4736C23.998 18.5274 20.7119 21.8135 16.6582 21.8135C14.889 21.8135 13.2664 21.187 11.999 20.1445C10.7316 21.187 9.10905 21.8135 7.33984 21.8135C3.28615 21.8134 0 18.5274 0 14.4736C6.30334e-05 11.4506 1.82795 8.85522 4.43848 7.73047C4.43169 7.60111 4.42773 7.47089 4.42773 7.33984C4.42782 3.28618 7.71394 5.59221e-05 11.7676 0ZM4.56738 8.76953C2.45519 9.7981 1.00006 11.9663 1 14.4736C1 17.9751 3.83844 20.8134 7.33984 20.8135C8.82249 20.8135 10.1849 20.3029 11.2646 19.4502C10.057 18.142 9.31836 16.3944 9.31836 14.4736C9.31836 14.4024 9.32123 14.3315 9.32324 14.2607C6.90802 13.4078 5.07264 11.3285 4.56738 8.76953ZM19 8.58203C18.5773 11.0612 16.913 13.1149 14.668 14.082C14.6748 14.2117 14.6797 14.3422 14.6797 14.4736C14.6797 16.3947 13.9403 18.142 12.7324 19.4502C13.8122 20.3032 15.1753 20.8135 16.6582 20.8135C20.1597 20.8135 22.998 17.9751 22.998 14.4736C22.998 11.7996 21.3419 9.51372 19 8.58203ZM13.6777 14.4258C13.0685 14.5896 12.4286 14.6797 11.7676 14.6797C11.2718 14.6797 10.7876 14.6289 10.3193 14.5352C10.3349 16.1697 10.9692 17.6556 11.999 18.7715C13.0418 17.6416 13.6797 16.1324 13.6797 14.4736C13.6797 14.4577 13.6779 14.4417 13.6777 14.4258ZM11.999 10.1758C11.1584 11.0866 10.5808 12.2437 10.3887 13.5273C10.8327 13.6258 11.2939 13.6797 11.7676 13.6797C12.4008 13.6797 13.0119 13.5849 13.5889 13.4121C13.3802 12.1746 12.8143 11.0592 11.999 10.1758ZM7.33984 8.13379C6.70635 8.1338 6.09478 8.22744 5.51758 8.40039C5.88927 10.6069 7.39993 12.4245 9.4248 13.2305C9.66845 11.8027 10.3232 10.5157 11.2646 9.49609C10.185 8.64361 8.82226 8.13379 7.33984 8.13379ZM16.6582 8.13379C15.1755 8.13381 13.8122 8.64333 12.7324 9.49609C13.6324 10.4707 14.2706 11.6893 14.5381 13.042C16.38 12.1454 17.7223 10.3841 18.0361 8.28516C17.5924 8.1868 17.1315 8.13379 16.6582 8.13379ZM11.7676 1C8.26623 1.00006 5.42782 3.83846 5.42773 7.33984C5.42773 7.35548 5.4286 7.3711 5.42871 7.38672C6.03818 7.22276 6.6786 7.1338 7.33984 7.13379C9.10882 7.13379 10.7317 7.75948 11.999 8.80176C13.2664 7.75948 14.8893 7.13381 16.6582 7.13379C17.1537 7.13379 17.6375 7.18375 18.1055 7.27734C18.0718 3.80477 15.248 1.00009 11.7676 1Z" fill="#222222"/>
</svg>
